<svg width="1440" height="231" viewBox="0 0 1440 231" fill="none" xmlns="http://www.w3.org/2000/svg">
<path d="M9.88166 10.5744C20.7221 -1.28978 38.7422 -1.93641 53.2434 2.61808C77.5635 10.6587 97.8255 27.0492 116.328 44.1145C133.979 28.9048 152.737 10.0964 177.852 10.0964C202.03 11.3053 220.532 28.961 237.361 44.3113C254.075 28.7642 272.833 11.0804 297.068 10.0683C321.786 10.3213 340.771 28.4831 357.712 44.1426C374.711 29.3827 392.589 11.4459 416.54 10.1245C441.825 9.75906 461.321 28.3987 478.688 44.2551C495.999 28.2581 515.608 9.70283 540.921 10.0964C564.816 11.5021 582.467 29.4671 599.522 44.0583C617.23 28.0051 637.379 8.52204 663.316 10.1808C686.217 12.8235 703.897 29.3265 720.016 44.2551C737.44 28.3706 756.992 9.42169 782.391 10.0964C806.285 11.5303 823.908 29.4952 841.02 44.002C857.933 28.4549 876.918 10.2651 901.522 10.0683C925.842 10.8836 944.458 28.7923 961.315 44.1988C978.115 28.8485 996.617 11.1367 1020.8 10.0964C1045.8 10.1245 1064.75 28.6799 1082.23 44.0864C1099.2 28.5674 1118.02 10.4338 1142.65 10.0683C1167.11 10.7712 1185.84 28.6236 1202.64 44.227C1220.01 28.3987 1239.53 9.81529 1264.79 10.1245C1288.74 11.3616 1306.62 29.3546 1323.65 44.1145C1342.12 27.1336 1362.27 10.7712 1386.45 2.67431C1400.38 -1.62715 1417.52 -1.57092 1428.62 9.08432C1441.1 19.7396 1442.21 38.0137 1437.24 52.6331C1429.01 76.7269 1412.5 96.9128 1395.22 115.299C1411.73 133.096 1427.65 152.354 1436.31 175.239C1440.62 187.496 1442.21 202.116 1435.14 213.671C1427.45 227.278 1409.92 233.604 1394.9 230.005C1366.9 224.073 1344.19 205.293 1323.56 186.653C1306.71 201.525 1288.63 219.125 1264.79 220.615C1239.53 220.952 1220.07 202.2 1202.64 186.456C1186.47 201.525 1168.7 218.366 1145.49 220.531C1119.69 221.908 1099.94 202.509 1082.12 186.737C1065.26 201.61 1047.22 219.069 1023.43 220.587C998.178 220.896 978.739 202.284 961.286 186.541C944.997 201.413 927.346 218.31 904.218 220.531C878.451 221.796 858.416 202.678 840.793 186.625C822.319 203.184 801.007 223.398 773.991 220.306C752.31 216.398 735.425 200.879 720.044 186.288C704.01 201.413 686.246 218.028 663.203 220.502C637.237 221.824 617.202 202.622 599.238 186.709C581.417 202.65 561.41 221.936 535.53 220.502C512.515 218.057 494.75 201.413 478.717 186.344C462.541 201.272 444.861 217.888 421.904 220.502C395.852 222.105 375.846 202.566 357.939 186.597C340.146 202.566 320.196 221.796 294.316 220.531C271.273 218 253.451 201.357 237.332 186.316C220.078 202.228 200.441 220.868 175.269 220.615C151.432 219.069 133.44 201.441 116.498 186.625C96.1512 204.674 74.1865 223.145 46.9719 229.611C32.6693 233.463 15.7843 228.796 6.93034 216.651C-2.17904 204.983 -1.24256 188.677 3.69523 175.492C12.2654 152.494 28.2139 133.18 44.7868 115.356C28.2139 97.3907 12.0668 78.0482 3.52496 54.9384C-1.92364 40.5159 -1.95202 21.9887 9.88166 10.5744ZM22.7369 20.4143C14.4505 27.4147 15.8978 39.5038 18.6221 48.8096C26.1991 69.9795 41.2395 87.3821 56.0812 103.969C72.5122 87.9444 88.6593 71.6663 105.062 55.6413C89.1985 40.9938 72.0014 27.1055 51.711 18.9805C42.5165 15.7755 30.8247 13.4982 22.7369 20.4143ZM1386.76 19.6833C1367.26 27.977 1350.27 41.1063 1335.17 55.7256C1351.51 71.7507 1367.63 88.0006 1383.98 104.026C1398.59 87.3821 1413.8 70.1763 1421.24 48.9782C1423.96 39.7287 1425.52 27.471 1417.12 20.5268C1408.64 13.1046 1396.29 16.0566 1386.76 19.6833ZM128.077 55.6694C144.451 71.7226 160.797 87.7476 176.859 104.054C193.318 88.085 209.38 71.6944 225.811 55.7256C211.338 43.0462 196.269 26.487 175.496 26.2902C156.086 28.4268 141.84 43.3554 128.077 55.6694ZM248.825 55.7537C265.143 71.7788 281.404 87.86 297.551 104.054C313.698 87.7195 330.072 71.6382 346.503 55.5851C332.115 43.2992 317.557 27.246 297.295 26.3183C277.402 27.8927 262.702 43.1024 248.825 55.7537ZM369.376 55.6413C385.92 71.582 401.925 88.0287 418.498 103.913C434.645 87.7757 450.849 71.7226 467.138 55.7256C453.205 43.3273 438.76 27.8364 418.981 26.3464C398.52 26.993 383.792 43.243 369.376 55.6413ZM490.181 55.8381C506.442 71.8912 522.873 87.7476 538.736 104.166C554.997 87.9725 571.201 71.7225 587.66 55.7537C573.641 42.9618 558.686 27.2179 538.396 26.3464C518.616 28.0051 503.916 43.1305 490.181 55.8381ZM610.902 55.5569C627.333 71.6101 643.48 87.9725 660.024 103.941C676.001 87.6914 692.234 71.6944 708.494 55.7256C694.561 43.2992 680.088 27.9489 660.308 26.3745C639.848 26.993 625.29 43.2149 610.902 55.5569ZM731.566 55.7256C747.741 71.7788 764.115 87.607 780.035 103.885C796.665 88.0287 812.614 71.4695 829.243 55.6132C814.855 43.1305 800.042 27.0492 779.61 26.3183C759.915 28.0613 745.443 43.2992 731.566 55.7256ZM852.229 55.6132C868.632 71.6663 884.949 87.8319 901.267 103.969C917.244 87.6914 933.703 71.9193 949.765 55.7256C935.888 43.243 921.359 27.8645 901.551 26.4026C881.175 27.0774 866.56 43.2149 852.229 55.6132ZM972.95 55.6132C989.211 71.7507 1005.41 87.9444 1021.79 103.969C1037.68 87.354 1054.99 72.088 1070.29 54.9103C1055.64 43.0462 1041.26 26.7681 1020.88 26.3745C1001.24 28.0613 986.798 43.2711 972.95 55.6132ZM1093.47 55.6694C1110.07 71.5258 1126.25 87.8038 1142.51 103.998C1158.6 87.8038 1174.89 71.7788 1191.18 55.7819C1177.33 43.1867 1162.66 27.724 1142.74 26.3745C1122.36 27.0492 1107.89 43.4116 1093.47 55.6694ZM1214.28 55.6975C1230.65 71.6101 1246.8 87.7757 1262.83 104.054C1279.38 88.085 1295.3 71.4976 1311.98 55.6975C1297.51 43.1586 1282.7 26.7962 1262.09 26.3183C1242.49 28.23 1228.18 43.4398 1214.28 55.6975ZM116.385 67.0556C100.039 83.0807 83.9769 99.3868 67.546 115.328C83.9486 131.324 100.096 147.518 116.356 163.628C133.185 147.968 149.048 131.324 165.621 115.384C149.105 99.3587 133.071 82.8557 116.385 67.0556ZM188.38 115.468C204.811 131.409 221.043 147.518 237.219 163.712C253.508 147.574 269.768 131.381 286.114 115.299C269.825 99.2463 253.536 83.165 237.332 67.0275C220.987 83.165 204.811 99.4431 188.38 115.468ZM357.287 67.9271C340.742 83.2493 325.276 99.7242 308.959 115.299C325.163 130.875 340.572 147.321 357.145 162.503L358.592 162.728C375.193 147.434 390.688 130.987 406.948 115.299C390.603 99.7804 375.25 83.2212 358.677 67.9834L357.287 67.9271ZM429.878 115.328C446.11 131.493 462.314 147.659 478.688 163.656C495.006 147.574 511.039 131.212 527.584 115.356C511.124 99.4431 495.062 83.165 478.717 67.1118C462.342 83.1088 446.138 99.2463 429.878 115.328ZM550.371 115.356C564.475 129.3 578.608 143.245 592.598 157.302C594.84 159.298 596.883 161.856 599.863 162.812C616.492 147.49 632.072 131.071 648.219 115.271C631.958 99.2744 615.669 83.3056 599.636 67.0837C582.751 82.7152 566.944 99.4149 550.371 115.356ZM671.347 115.271C687.466 131.465 703.783 147.462 720.044 163.515C736.276 147.49 752.537 131.465 768.684 115.328C752.509 99.1619 736.22 83.1369 720.016 67.0556C703.727 83.0807 687.58 99.2181 671.347 115.271ZM791.756 115.271C808.243 131.324 824.05 148.052 841.134 163.487C857.252 147.35 873.485 131.353 889.717 115.299C873.343 99.3868 857.11 83.3056 841.048 67.0837C824.163 82.6871 808.442 99.4431 791.756 115.271ZM912.505 115.299C928.879 131.324 945.196 147.434 961.372 163.656C977.519 147.49 993.921 131.521 1010.1 115.384C993.865 99.2463 977.604 83.1369 961.315 67.0837C945.026 83.1369 928.964 99.4149 912.505 115.299ZM1033.2 115.299C1049.71 131.324 1065.52 148.024 1082.46 163.599C1098.41 147.265 1114.84 131.409 1130.99 115.271C1114.7 99.3025 1098.44 83.3056 1082.43 67.0275C1065.58 82.6871 1049.83 99.4149 1033.2 115.299ZM1153.89 115.328C1170.26 131.296 1186.41 147.49 1202.67 163.599C1219.19 147.715 1235.14 131.296 1251.68 115.412C1235.22 99.4149 1219.02 83.165 1202.64 67.0556C1186.44 83.1931 1170.26 99.3587 1153.89 115.328ZM1322.88 67.8147C1306.45 83.3337 1290.76 99.668 1274.47 115.384C1291.01 131.296 1306.93 147.827 1323.5 163.74C1339.85 147.603 1356.05 131.353 1372.46 115.271C1355.57 99.8929 1340.73 81.928 1322.88 67.8147ZM128.077 175.07C142.379 187.553 157.249 203.999 177.738 204.281C197.489 202.931 211.962 187.356 225.726 174.873C209.408 158.904 193.204 142.851 177.057 126.742C160.74 142.823 144.479 159.045 128.077 175.07ZM1021.65 126.798C1005.36 142.739 989.579 159.186 972.978 174.845C985.294 186.456 998.32 199.192 1015.23 203.634C1038.02 207.457 1055.16 188.565 1070.54 174.958C1053.86 159.298 1038.05 142.739 1021.65 126.798ZM1263 126.854C1246.74 142.823 1230.79 159.129 1214.33 174.901C1229.74 188.79 1247.37 207.935 1270.41 203.493C1286.93 198.967 1299.21 186.119 1311.87 175.379C1295.72 159.045 1279.35 142.964 1263 126.854ZM18.537 182.07C16.1532 190.645 14.4505 201.469 21.1762 208.582C28.1288 217.044 40.7854 215.358 50.0651 212.321C71.0365 204.365 89.0566 190.308 104.948 174.817C88.5174 158.933 72.4554 142.626 56.0812 126.658C41.1827 143.301 26.0572 160.76 18.537 182.07ZM248.797 174.845C261.34 186.428 274.309 199.642 291.535 203.746C314.237 207.261 331.122 188.368 346.56 174.958C329.873 159.186 313.897 142.739 297.494 126.714C281.262 142.767 265.2 158.989 248.797 174.845ZM369.347 175.098C382.515 186.372 395.37 200.429 413.192 203.859C435.468 206.698 452.155 188.312 467.082 174.789C450.565 159.073 434.787 142.626 418.413 126.798C401.954 142.823 385.949 159.27 369.347 175.098ZM490.21 174.929C502.356 186.119 514.814 198.545 531.103 203.381C554.401 208.188 572.166 188.818 587.83 174.929C571.258 159.073 555.167 142.739 538.793 126.686C522.731 142.907 506.47 158.904 490.21 174.929ZM612.236 174.17L612.548 176.11C624.382 188.003 638.031 200.204 654.916 203.915C677.051 206.389 693.511 188.227 708.466 174.845C691.95 159.101 676.086 142.683 659.797 126.742C643.962 142.57 627.673 157.977 612.236 174.17ZM731.566 174.845C745.414 187.272 759.887 202.959 779.723 204.252C800.156 203.775 814.884 187.496 829.215 175.098C812.727 159.129 796.608 142.795 780.206 126.742C764.03 142.823 747.997 159.045 731.566 174.845ZM852.343 174.817C864.375 186.259 877.089 198.573 893.434 203.409C916.591 208.076 934.441 188.902 949.737 174.761C933.363 158.961 917.13 142.964 901.21 126.686C884.921 142.739 868.887 159.017 852.343 174.817ZM1093.7 174.845C1107.21 186.906 1121.03 201.947 1140.07 204.168C1161.18 204.73 1176.68 187.918 1191.12 174.901C1174.86 158.904 1158.8 142.739 1142.45 126.826C1126.14 142.767 1110.16 159.045 1093.7 174.845ZM1334.97 174.958C1351.15 190.167 1369.05 204.309 1390.08 212.349C1399.22 215.301 1411.7 217.016 1418.66 208.779C1425.01 202.088 1423.91 191.967 1421.95 183.785C1414.94 161.575 1398.88 143.92 1383.92 126.601C1367.55 142.654 1351.46 158.989 1334.97 174.958Z" fill="#E4D3BD" fill-opacity="0.5"/>
<path d="M51.086 45.9135C57.7549 41.0779 68.3399 47.9377 67.0629 56.0346C67.6305 64.3001 56.6481 69.8105 50.1212 64.8343C43.2537 60.7015 43.1969 48.9498 51.086 45.9135Z" fill="#E4D3BD" fill-opacity="0.5"/>
<path d="M170.444 46.532C179.44 38.7163 193.686 52.3516 186.393 61.4887C182.42 68.4329 170.53 68.461 167.209 60.8983C163.832 56.2876 165.989 49.5964 170.444 46.532Z" fill="#E4D3BD" fill-opacity="0.5"/>
<path d="M292.328 45.8573C300.87 39.7284 313.924 52.3797 307.397 60.8421C304.304 67.224 294.57 68.9108 289.888 63.4005C284.269 58.6773 285.915 49.0904 292.328 45.8573Z" fill="#E4D3BD" fill-opacity="0.5"/>
<path d="M413.844 45.6323C422.783 39.9533 434.333 53.3918 427.664 61.5168C423.691 68.5734 411.829 68.3485 408.423 60.8421C404.592 55.641 407.913 47.6003 413.844 45.6323Z" fill="#E4D3BD" fill-opacity="0.5"/>
<path d="M533.401 45.9697C541.914 39.7284 555.053 51.6769 549.009 60.589C546.199 67.2802 535.898 68.714 531.074 63.3723C525.653 58.9303 527.101 49.006 533.401 45.9697Z" fill="#E4D3BD" fill-opacity="0.5"/>
<path d="M653.27 46.5039C661.953 39.3067 675.121 50.7772 669.956 60.4204C666.948 66.8023 659.626 66.746 653.554 66.4087C648.814 60.6172 645.608 51.3957 653.27 46.5039Z" fill="#E4D3BD" fill-opacity="0.5"/>
<path d="M774.927 45.9416C783.469 39.391 796.267 52.1267 790.137 60.7858C787.214 67.4489 777.169 68.6578 772.401 63.3442C766.924 58.7616 768.315 48.8374 774.927 45.9416Z" fill="#E4D3BD" fill-opacity="0.5"/>
<path d="M891.22 60.8702C885.573 52.8295 894.399 44.9295 901.919 43.1302C906.488 46.4477 913.611 49.2591 912.078 56.2314C912.476 67.0272 895.676 70.6539 891.22 60.8702Z" fill="#E4D3BD" fill-opacity="0.5"/>
<path d="M1016.08 46.0822C1024.63 39.4472 1038.39 52.0705 1031.64 61.0108C1028.26 68.0674 1016.37 68.8546 1012.59 61.8261C1008.56 56.9061 1010.55 48.9779 1016.08 46.0822Z" fill="#E4D3BD" fill-opacity="0.5"/>
<path d="M1129.65 56.2595C1131.81 49.1466 1139.27 40.8248 1147.33 45.548C1157.66 49.7089 1153.97 67.1115 1142.82 66.6336C1136.04 67.5051 1132.86 60.7858 1129.65 56.2595Z" fill="#E4D3BD" fill-opacity="0.5"/>
<path d="M1251.88 56.0627C1250.46 49.484 1257.18 46.8694 1261.38 43.5519C1264.73 44.6765 1268.11 45.7729 1271.49 46.8694C1272.74 51.452 1276.65 56.9623 1272.68 61.2919C1268.14 70.8788 1251.23 66.7742 1251.88 56.0627Z" fill="#E4D3BD" fill-opacity="0.5"/>
<path d="M1378.7 45.7448C1385.68 41.1341 1395.87 48.1064 1394.99 56.147C1394.93 64.1876 1384.6 69.6418 1377.88 65.0592C1370.92 61.1232 1371.09 48.8373 1378.7 45.7448Z" fill="#E4D3BD" fill-opacity="0.5"/>
<path d="M167.351 169.475C172.119 160.113 188.152 163.712 188.039 174.254C189.401 180.946 182.59 184.066 178.192 187.384C170.189 186.034 161.619 177.516 167.351 169.475Z" fill="#E4D3BD" fill-opacity="0.5"/>
<path d="M777.85 164.19C787.214 161.462 796.21 174.311 789.4 181.677C785.569 186.737 777.85 188.058 773.054 183.476C765.59 178.359 769.223 165.68 777.85 164.19Z" fill="#E4D3BD" fill-opacity="0.5"/>
<path d="M1016.34 164.892C1025.31 160.085 1037.03 170.571 1032.2 179.624C1028.91 187.833 1015.32 188.733 1011.86 180.271C1008.48 174.957 1011.63 168.21 1016.34 164.892Z" fill="#E4D3BD" fill-opacity="0.5"/>
<path d="M1257.98 164.892C1269.7 158.876 1281.31 177.15 1269.44 184.151C1256.9 193.794 1243.88 171.331 1257.98 164.892Z" fill="#E4D3BD" fill-opacity="0.5"/>
<path d="M48.532 167.085C54.4914 160.225 67.0345 165.23 67.0061 174.058C68.8791 182.745 57.8684 189.267 50.7171 184.657C44.0766 181.733 43.1401 171.64 48.532 167.085Z" fill="#E4D3BD" fill-opacity="0.5"/>
<path d="M289.831 167.142C294.514 161.715 304.191 163.459 307.34 169.672C313.3 177.347 303.112 189.295 294.4 185.584C286.312 183.813 283.815 172.483 289.831 167.142Z" fill="#E4D3BD" fill-opacity="0.5"/>
<path d="M411.488 166.27C418.98 159.888 430.956 167.142 429.452 176.532C428.629 186.231 414.525 189.773 409.218 181.564C404.734 177.206 406.863 169.644 411.488 166.27Z" fill="#E4D3BD" fill-opacity="0.5"/>
<path d="M527.98 176.532C525.568 166.073 541.091 159.129 547.391 167.901C552.272 172.315 549.321 178.387 547.959 183.616C540.864 187.833 528.406 186.484 527.98 176.532Z" fill="#E4D3BD" fill-opacity="0.5"/>
<path d="M652.872 166.27C659.087 160.563 670.467 165.708 670.864 173.889C672.567 182.154 662.067 189.211 654.887 185.078C647.168 182.183 646.402 170.937 652.872 166.27Z" fill="#E4D3BD" fill-opacity="0.5"/>
<path d="M888.411 173.945C891.788 169.672 894.966 162.896 901.635 163.993C913.526 163.571 916.392 183.026 904.53 185.584C896.328 189.127 890.227 180.777 888.411 173.945Z" fill="#E4D3BD" fill-opacity="0.5"/>
<path d="M1129.91 173.72C1133.31 169.531 1136.18 163.149 1142.71 163.908C1150.14 163.683 1155.39 172.033 1152.98 178.725C1151.82 183.335 1146.57 184.741 1143.13 187.215C1139.98 185.837 1136.83 184.46 1133.71 183.054C1132.43 179.962 1131.16 176.841 1129.91 173.72Z" fill="#E4D3BD" fill-opacity="0.5"/>
<path d="M1376.6 166.664C1382.98 160.45 1394.42 165.623 1394.99 174.142C1396.18 182.323 1386.02 189.324 1378.87 184.91C1371.72 182.239 1370.75 171.077 1376.6 166.664Z" fill="#E4D3BD" fill-opacity="0.5"/>
</svg>
