<svg width="231" height="1147" viewBox="0 0 231 1147" fill="none" xmlns="http://www.w3.org/2000/svg">
<path d="M220.426 -151.118C232.29 -140.278 232.936 -122.258 228.382 -107.757C220.341 -83.4365 203.951 -63.1745 186.886 -44.672C202.095 -27.0208 220.904 -8.26288 220.904 16.8518C219.695 41.0299 202.039 59.5325 186.689 76.3607C202.236 93.0754 219.92 111.833 220.932 136.068C220.679 160.786 202.517 179.771 186.857 196.712C201.617 213.711 219.554 231.589 220.875 255.54C221.241 280.825 202.601 300.321 186.745 317.688C202.742 334.999 221.297 354.608 220.904 379.921C219.498 403.816 201.533 421.467 186.942 438.522C202.995 456.23 222.478 476.379 220.819 502.316C218.177 525.217 201.674 542.897 186.745 559.016C202.629 576.44 221.578 595.992 220.904 621.391C219.47 645.285 201.505 662.908 186.998 680.02C202.545 696.933 220.735 715.918 220.932 740.522C220.116 764.842 202.208 783.458 186.801 800.315C202.151 817.115 219.863 835.617 220.904 859.795C220.875 884.797 202.32 903.753 186.914 921.234C202.433 938.204 220.566 957.019 220.932 981.651C220.229 1006.11 202.376 1024.84 186.773 1041.64C202.601 1059.01 221.185 1078.53 220.875 1103.79C219.638 1127.74 201.645 1145.62 186.886 1162.65C203.866 1181.12 220.229 1201.27 228.326 1225.45C232.627 1239.38 232.571 1256.52 221.916 1267.62C211.26 1280.1 192.986 1281.21 178.367 1276.24C154.273 1268.01 134.087 1251.5 115.701 1234.22C97.9044 1250.73 78.6462 1266.65 55.7613 1275.31C43.5035 1279.62 28.8842 1281.21 17.3293 1274.14C3.72208 1266.45 -2.60361 1248.92 0.994995 1233.9C6.92708 1205.9 25.7073 1183.19 44.347 1162.56C29.4746 1145.71 11.8752 1127.63 10.3851 1103.79C10.0478 1078.53 28.7999 1059.07 44.5438 1041.64C29.4746 1025.47 12.6343 1007.7 10.4695 984.489C9.09187 958.693 28.4906 938.942 44.2626 921.121C29.3903 904.264 11.9314 886.216 10.4133 862.435C10.104 837.178 28.7155 817.739 44.4594 800.286C29.5871 783.997 12.6905 766.346 10.4695 743.218C9.20434 717.451 28.3219 697.416 44.3751 679.793C27.8159 661.319 7.60183 640.007 10.6944 612.991C14.6023 591.31 30.1212 574.425 44.7125 559.044C29.5871 543.01 12.9716 525.246 10.4976 502.203C9.17624 476.237 28.3782 456.202 44.2908 438.238C28.3501 420.417 9.06379 400.41 10.4976 374.53C12.9435 351.515 29.5871 333.75 44.6563 317.717C29.7277 301.541 13.1122 283.861 10.4976 260.904C8.89511 234.852 28.4344 214.846 44.4032 196.939C28.4344 179.146 9.20436 159.196 10.4695 133.316C12.9998 110.273 29.6433 92.4511 44.6844 76.3323C28.7718 59.0784 10.1321 39.4407 10.3852 14.2693C11.9315 -9.56829 29.559 -27.56 44.3751 -44.5017C26.3259 -64.8489 7.8549 -86.8135 1.38865 -114.028C-2.46297 -128.331 2.20398 -145.216 14.3493 -154.07C26.0166 -163.179 42.3228 -162.243 55.5083 -157.305C78.5057 -148.735 97.8201 -132.786 115.644 -116.213C133.609 -132.786 152.952 -148.933 176.062 -157.475C190.484 -162.924 209.011 -162.952 220.426 -151.118ZM210.586 -138.263C203.585 -146.549 191.496 -145.102 182.191 -142.378C161.021 -134.801 143.618 -119.761 127.031 -104.919C143.056 -88.4878 159.334 -72.3407 175.359 -55.9381C190.006 -71.8015 203.895 -88.9986 212.02 -109.289C215.225 -118.484 217.502 -130.175 210.586 -138.263ZM211.317 1225.76C203.023 1206.26 189.894 1189.27 175.274 1174.17C159.249 1190.51 142.999 1206.63 126.974 1222.98C143.618 1237.59 160.824 1252.8 182.022 1260.24C191.271 1262.96 203.529 1264.52 210.473 1256.12C217.895 1247.64 214.943 1235.29 211.317 1225.76ZM175.331 -32.9235C159.277 -16.5493 143.252 -0.203495 126.946 15.8585C142.915 32.3178 159.306 48.3799 175.274 64.8108C187.954 50.3379 204.513 35.2692 204.71 14.4964C202.573 -4.91426 187.645 -19.1601 175.331 -32.9235ZM175.246 87.8255C159.221 104.143 143.14 120.404 126.946 136.551C143.281 152.698 159.362 169.072 175.415 185.503C187.701 171.115 203.754 156.557 204.682 136.295C203.107 116.402 187.898 101.702 175.246 87.8255ZM175.359 208.376C159.418 224.92 142.971 240.925 127.087 257.498C143.224 273.645 159.277 289.849 175.274 306.138C187.673 292.205 203.164 277.76 204.654 257.981C204.007 237.52 187.757 222.792 175.359 208.376ZM175.162 329.181C159.109 345.442 143.252 361.873 126.834 377.736C143.028 393.997 159.277 410.201 175.246 426.66C188.038 412.641 203.782 397.686 204.654 377.396C202.995 357.616 187.87 342.916 175.162 329.181ZM175.443 449.902C159.39 466.333 143.028 482.48 127.059 499.024C143.309 515.001 159.306 531.234 175.274 547.494C187.701 533.561 203.051 519.088 204.626 499.308C204.007 478.848 187.785 464.29 175.443 449.902ZM175.274 570.566C159.221 586.741 143.393 603.115 127.115 619.035C142.971 635.665 159.53 651.614 175.387 668.243C187.87 653.855 203.951 639.042 204.682 618.61C202.939 598.915 187.701 584.443 175.274 570.566ZM175.387 691.229C159.334 707.632 143.168 723.949 127.031 740.267C143.309 756.244 159.081 772.703 175.274 788.765C187.757 774.888 203.135 760.359 204.597 740.551C203.923 720.175 187.785 705.56 175.387 691.229ZM175.387 811.95C159.249 828.211 143.056 844.415 127.031 860.789C143.646 876.68 158.912 893.991 176.09 909.287C187.954 894.644 204.232 880.256 204.626 859.881C202.939 840.243 187.729 825.798 175.387 811.95ZM175.331 932.472C159.474 949.073 143.196 965.249 127.002 981.509C143.196 997.6 159.221 1013.89 175.218 1030.18C187.813 1016.33 203.276 1001.66 204.626 981.736C203.951 961.361 187.588 946.888 175.331 932.472ZM175.302 1053.28C159.39 1069.65 143.224 1085.8 126.946 1101.83C142.915 1118.38 159.502 1134.3 175.302 1150.98C187.841 1136.51 204.204 1121.7 204.682 1101.09C202.77 1081.49 187.56 1067.18 175.302 1053.28ZM163.944 -44.6153C147.919 -60.961 131.613 -77.0231 115.673 -93.454C99.6756 -77.0515 83.4819 -60.9043 67.3725 -44.6436C83.032 -27.8154 99.6756 -11.952 115.616 4.6208C131.641 -11.8953 148.144 -27.9289 163.944 -44.6153ZM115.532 27.38C99.5912 43.811 83.4819 60.0433 67.2881 76.2188C83.4256 92.5078 99.6194 108.768 115.701 125.114C131.754 108.825 147.835 92.5362 163.973 76.3323C147.835 59.9865 131.557 43.811 115.532 27.38ZM163.073 196.287C147.751 179.742 131.276 164.276 115.701 147.959C100.125 164.163 83.6787 179.572 68.497 196.145L68.2721 197.592C83.5662 214.193 100.013 229.688 115.701 245.948C131.22 229.603 147.779 214.25 163.017 197.677L163.073 196.287ZM115.673 268.878C99.5069 285.11 83.3413 301.314 67.3444 317.688C83.4256 334.006 99.788 350.039 115.644 366.584C131.557 350.124 147.835 334.062 163.888 317.717C147.891 301.342 131.754 285.138 115.673 268.878ZM115.644 389.371C101.7 403.475 87.7552 417.608 73.6981 431.598C71.702 433.84 69.1437 435.883 68.1878 438.863C83.51 455.492 99.9286 471.072 115.729 487.219C131.726 470.958 147.694 454.669 163.916 438.636C148.285 421.751 131.585 405.944 115.644 389.371ZM115.729 510.347C99.535 526.466 83.5381 542.783 67.4849 559.044C83.51 575.276 99.535 591.537 115.672 607.684C131.838 591.509 147.863 575.22 163.944 559.016C147.919 542.727 131.782 526.58 115.729 510.347ZM115.729 630.756C99.6756 647.243 82.9477 663.05 67.513 680.134C83.6505 696.252 99.6475 712.485 115.701 728.717C131.613 712.343 147.694 696.11 163.916 680.048C148.313 663.163 131.557 647.442 115.729 630.756ZM115.701 751.505C99.6756 767.879 83.5662 784.196 67.3443 800.372C83.51 816.519 99.4787 832.921 115.616 849.097C131.754 832.865 147.863 816.604 163.916 800.315C147.863 784.026 131.585 767.964 115.701 751.505ZM115.701 872.197C99.6756 888.713 82.9758 904.519 67.4006 921.461C83.7349 937.41 99.5912 953.841 115.729 969.988C131.698 953.699 147.694 937.438 163.973 921.433C148.313 904.576 131.585 888.826 115.701 872.197ZM115.672 992.889C99.7037 1009.26 83.5099 1025.41 67.4006 1041.67C83.285 1058.19 99.7037 1074.14 115.588 1090.68C131.585 1074.22 147.835 1058.02 163.944 1041.64C147.807 1025.44 131.641 1009.26 115.672 992.889ZM163.185 1161.88C147.666 1145.45 131.332 1129.76 115.616 1113.47C99.7036 1130.01 83.1726 1145.93 67.26 1162.5C83.3975 1178.85 99.6474 1195.05 115.729 1211.46C131.107 1194.57 149.072 1179.73 163.185 1161.88ZM55.93 -32.9235C43.4474 -18.6209 27.0006 -3.75076 26.7195 16.7383C28.0689 36.4894 43.6442 50.9623 56.1268 64.7257C72.0956 48.4082 88.1488 32.2043 104.258 16.0572C88.1769 -0.260245 71.9551 -16.5209 55.93 -32.9235ZM104.202 860.647C88.2612 844.358 71.8145 828.579 56.1549 811.978C44.5438 824.294 31.8081 837.32 27.366 854.233C23.5425 877.021 42.4352 894.161 56.0425 909.542C71.702 892.856 88.2612 877.049 104.202 860.647ZM104.146 1102C88.1769 1085.74 71.8707 1069.79 56.0987 1053.33C42.2103 1068.74 23.0646 1086.37 27.5066 1109.41C32.033 1125.93 44.8811 1138.21 55.6207 1150.87C71.955 1134.72 88.0363 1118.35 104.146 1102ZM48.9296 -142.463C40.3548 -144.847 29.5309 -146.549 22.418 -139.824C13.9557 -132.871 15.6425 -120.215 18.6788 -110.935C26.6351 -89.9635 40.6922 -71.9434 56.1831 -56.0516C72.0675 -72.4826 88.3737 -88.5446 104.343 -104.919C87.699 -119.817 70.2401 -134.943 48.9296 -142.463ZM56.1549 87.7971C44.5719 100.34 31.3583 113.309 27.2536 130.535C23.7394 153.237 42.6321 170.122 56.0425 185.56C71.8145 168.873 88.2612 152.897 104.286 136.494C88.2331 120.262 72.0113 104.2 56.1549 87.7971ZM55.9019 208.347C44.6282 221.515 30.5711 234.37 27.1412 252.192C24.3016 274.468 42.6883 291.155 56.2112 306.082C71.927 289.565 88.3737 273.787 104.202 257.413C88.1769 240.954 71.7302 224.949 55.9019 208.347ZM56.0706 329.21C44.8812 341.356 32.4547 353.814 27.6191 370.103C22.8116 393.401 42.1822 411.166 56.0706 426.83C71.9269 410.258 88.2612 394.167 104.314 377.793C88.0926 361.731 72.0956 345.47 56.0706 329.21ZM56.8297 451.236L54.8898 451.548C42.9975 463.382 30.796 477.031 27.0849 493.916C24.6109 516.051 42.7726 532.511 56.1549 547.466C71.8988 530.95 88.3175 515.086 104.258 498.797C88.4299 482.962 73.0234 466.673 56.8297 451.236ZM56.1549 570.566C43.7285 584.414 28.0408 598.887 26.7475 618.723C27.2255 639.156 43.5036 653.884 55.9019 668.215C71.8707 651.727 88.205 635.608 104.258 619.206C88.1769 603.03 71.9551 586.997 56.1549 570.566ZM56.183 691.343C44.7406 703.375 32.4266 716.089 27.591 732.434C22.924 755.591 42.0979 773.441 56.2393 788.737C72.0394 772.363 88.0363 756.13 104.314 740.21C88.2612 723.921 71.9832 707.887 56.183 691.343ZM56.1549 932.699C44.094 946.207 29.0529 960.027 26.8319 979.069C26.2696 1000.18 43.0818 1015.68 56.0987 1030.12C72.0956 1013.86 88.2612 997.798 104.174 981.452C88.2331 965.135 71.955 949.158 56.1549 932.699ZM56.0425 1173.97C40.8327 1190.15 26.6913 1208.05 18.6507 1229.08C15.6987 1238.22 13.9837 1250.7 22.2211 1257.66C28.9123 1264.01 39.0334 1262.91 47.2146 1260.95C69.4247 1253.94 87.0804 1237.88 104.399 1222.92C88.3456 1206.55 72.0113 1190.46 56.0425 1173.97Z" fill="#E4D3BD" fill-opacity="0.15"/>
<path d="M185.087 -109.914C189.922 -103.245 183.062 -92.6601 174.965 -93.9371C166.7 -93.3695 161.19 -104.352 166.166 -110.879C170.299 -117.746 182.05 -117.803 185.087 -109.914Z" fill="#E4D3BD" fill-opacity="0.15"/>
<path d="M184.468 9.44441C192.284 18.4403 178.648 32.6861 169.511 25.3929C162.567 21.42 162.539 9.52952 170.102 6.20929C174.712 2.83229 181.404 4.98904 184.468 9.44441Z" fill="#E4D3BD" fill-opacity="0.15"/>
<path d="M185.143 131.328C191.272 139.87 178.62 152.924 170.158 146.397C163.776 143.304 162.089 133.57 167.6 128.888C172.323 123.269 181.91 124.915 185.143 131.328Z" fill="#E4D3BD" fill-opacity="0.15"/>
<path d="M185.368 252.844C191.047 261.783 177.608 273.333 169.483 266.664C162.427 262.691 162.652 250.829 170.158 247.423C175.359 243.592 183.4 246.913 185.368 252.844Z" fill="#E4D3BD" fill-opacity="0.15"/>
<path d="M185.03 372.401C191.272 380.914 179.323 394.053 170.411 388.009C163.72 385.199 162.286 374.898 167.628 370.074C172.07 364.653 181.994 366.101 185.03 372.401Z" fill="#E4D3BD" fill-opacity="0.15"/>
<path d="M184.496 492.27C191.693 500.953 180.223 514.121 170.58 508.956C164.198 505.948 164.254 498.626 164.591 492.554C170.383 487.814 179.604 484.608 184.496 492.27Z" fill="#E4D3BD" fill-opacity="0.15"/>
<path d="M185.058 613.927C191.609 622.469 178.873 635.267 170.214 629.137C163.551 626.214 162.342 616.169 167.656 611.401C172.238 605.924 182.163 607.315 185.058 613.927Z" fill="#E4D3BD" fill-opacity="0.15"/>
<path d="M170.13 730.22C178.17 724.573 186.071 733.399 187.87 740.919C184.552 745.488 181.741 752.611 174.769 751.078C163.973 751.476 160.346 734.676 170.13 730.22Z" fill="#E4D3BD" fill-opacity="0.15"/>
<path d="M184.918 855.084C191.553 863.626 178.93 877.389 169.989 870.635C162.933 867.258 162.145 855.368 169.174 851.594C174.094 847.564 182.022 849.55 184.918 855.084Z" fill="#E4D3BD" fill-opacity="0.15"/>
<path d="M174.741 968.653C181.853 970.81 190.175 978.273 185.452 986.333C181.291 996.662 163.888 992.973 164.366 981.821C163.495 975.038 170.214 971.86 174.741 968.653Z" fill="#E4D3BD" fill-opacity="0.15"/>
<path d="M174.937 1090.88C181.516 1089.46 184.131 1096.18 187.448 1100.38C186.324 1103.73 185.227 1107.11 184.131 1110.49C179.548 1111.74 174.038 1115.65 169.708 1111.68C160.121 1107.14 164.226 1090.23 174.937 1090.88Z" fill="#E4D3BD" fill-opacity="0.15"/>
<path d="M185.255 1217.7C189.866 1224.68 182.894 1234.87 174.853 1233.99C166.812 1233.93 161.358 1223.6 165.941 1216.88C169.877 1209.92 182.163 1210.09 185.255 1217.7Z" fill="#E4D3BD" fill-opacity="0.15"/>
<path d="M61.5251 6.35119C70.8871 11.1187 67.2885 27.1524 56.7457 27.0388C50.0545 28.401 46.9338 21.5902 43.6164 17.1916C44.9659 9.18899 53.4844 0.618797 61.5251 6.35119Z" fill="#E4D3BD" fill-opacity="0.15"/>
<path d="M66.8105 616.85C69.5376 626.214 56.6894 635.21 49.3235 628.4C44.263 624.569 42.9416 616.85 47.5242 612.054C52.641 604.59 65.3204 608.223 66.8105 616.85Z" fill="#E4D3BD" fill-opacity="0.15"/>
<path d="M66.1076 855.34C70.9151 864.307 60.4286 876.027 51.3758 871.203C43.1665 867.911 42.2668 854.318 50.7292 850.856C56.0428 847.479 62.7902 850.629 66.1076 855.34Z" fill="#E4D3BD" fill-opacity="0.15"/>
<path d="M66.1076 1096.98C72.124 1108.7 53.8499 1120.31 46.8495 1108.44C37.2063 1095.9 59.6695 1082.88 66.1076 1096.98Z" fill="#E4D3BD" fill-opacity="0.15"/>
<path d="M63.9148 -112.468C70.7746 -106.509 65.7703 -93.9655 56.9425 -93.9939C48.2552 -92.1209 41.7327 -103.132 46.3435 -110.283C49.2673 -116.923 59.3603 -117.86 63.9148 -112.468Z" fill="#E4D3BD" fill-opacity="0.15"/>
<path d="M63.8585 128.831C69.2845 133.514 67.5415 143.191 61.3283 146.34C53.6531 152.3 41.7046 142.112 45.4157 133.4C47.1869 125.312 58.5168 122.815 63.8585 128.831Z" fill="#E4D3BD" fill-opacity="0.15"/>
<path d="M64.7301 250.488C71.112 257.98 63.8585 269.956 54.4684 268.451C44.769 267.629 41.2267 253.525 49.436 248.218C53.7937 243.734 61.3564 245.863 64.7301 250.488Z" fill="#E4D3BD" fill-opacity="0.15"/>
<path d="M54.4684 366.98C64.9269 364.568 71.871 380.091 63.0994 386.391C58.6855 391.272 52.6129 388.321 47.3837 386.959C43.1665 379.864 44.516 367.406 54.4684 366.98Z" fill="#E4D3BD" fill-opacity="0.15"/>
<path d="M64.7301 491.872C70.4372 498.087 65.2923 509.467 57.1111 509.864C48.8456 511.567 41.7889 501.067 45.9217 493.887C48.8175 486.168 60.0631 485.402 64.7301 491.872Z" fill="#E4D3BD" fill-opacity="0.15"/>
<path d="M57.0549 727.411C61.3282 730.788 68.1037 733.966 67.0073 740.635C67.429 752.526 47.974 755.392 45.4156 743.53C41.8733 735.328 50.2232 729.227 57.0549 727.411Z" fill="#E4D3BD" fill-opacity="0.15"/>
<path d="M57.2798 968.909C61.4688 972.314 67.8507 975.18 67.0916 981.707C67.3165 989.142 58.9666 994.392 52.2755 991.98C47.6648 990.817 46.2591 985.567 43.785 982.133C45.1626 978.983 46.5402 975.833 47.9459 972.711C51.0385 971.434 54.1591 970.157 57.2798 968.909Z" fill="#E4D3BD" fill-opacity="0.15"/>
<path d="M64.3364 1215.6C70.5496 1221.98 65.3766 1233.42 56.8581 1233.99C48.6769 1235.18 41.6765 1225.02 46.0904 1217.87C48.7612 1210.72 59.9225 1209.75 64.3364 1215.6Z" fill="#E4D3BD" fill-opacity="0.15"/>
</svg>
