<svg width="14" height="17" viewBox="0 0 14 17" fill="none" xmlns="http://www.w3.org/2000/svg">
<path d="M1.32002 4.68156C1.78488 4.57909 2.27557 4.78402 2.35305 5.28352L2.37888 14.2105C2.53383 14.8765 3.08909 15.3632 3.77347 15.4273C5.85245 15.6066 8.21551 15.2864 10.3203 15.4273C11.0564 15.3248 11.5987 14.7485 11.6633 14.0184C11.9086 11.2391 11.4696 8.10123 11.6633 5.28352C11.7924 4.4254 13.1741 4.43821 13.187 5.34756C12.9675 8.24212 13.4711 11.5337 13.187 14.377C13.0579 15.6578 11.8699 16.7721 10.6044 16.9386C8.29299 16.7977 5.74915 17.1307 3.47647 16.9386C2.13353 16.8233 0.932629 15.6322 0.816413 14.3002C0.571068 11.4184 1.01011 8.19088 0.816413 5.27071C0.816413 5.01456 1.06176 4.73279 1.3071 4.66875L1.32002 4.68156Z" fill="#CE9491"/>
<path d="M13.4452 2.35054C13.4452 2.35054 13.781 2.54266 13.8326 2.6067C14.2071 3.06778 13.9101 3.72097 13.3678 3.86186L0.519416 3.83624C0.0416382 3.61851 -0.177881 3.05497 0.170767 2.6195C0.222419 2.55547 0.519416 2.36335 0.558155 2.36335H3.86386V0.659915C3.86386 0.352529 4.31581 0.0707577 4.62572 0.0451422C6.17527 -0.0957433 7.93143 0.147604 9.49389 0.0451422C9.72632 0.0451422 10.1137 0.467799 10.1137 0.659915V2.35054H13.4452ZM8.53833 1.55646H5.47797V2.35054H8.53833V1.55646Z" fill="#CE9491"/>
<path d="M5.24554 6.19287C5.73623 6.0776 6.14945 6.35937 6.21401 6.85888C6.42062 8.58793 6.05906 10.714 6.21401 12.4815C6.04614 13.3652 4.79359 13.2756 4.69029 12.4174C4.48368 10.6884 4.84524 8.56231 4.69029 6.79484C4.72903 6.5643 5.01311 6.2441 5.24554 6.19287Z" fill="#CE9491"/>
<path d="M8.38338 6.19287C8.84824 6.10322 9.3002 6.38499 9.35185 6.85888C9.55845 8.58793 9.19689 10.714 9.35185 12.4815C9.13233 13.3268 7.93143 13.3268 7.82812 12.4174C7.98308 10.6628 7.62152 8.56231 7.82812 6.85888C7.86686 6.52587 8.06056 6.25691 8.39629 6.19287H8.38338Z" fill="#CE9491"/>
</svg>
