<svg width="19" height="19" viewBox="0 0 19 19" fill="none" xmlns="http://www.w3.org/2000/svg">
<path d="M9.0747 0.0135712C16.5967 -0.380102 21.5058 7.87128 17.6577 14.3118C13.8096 20.7523 4.89406 20.4058 1.29934 14.2015C-2.29537 7.99726 1.98028 0.391497 9.0747 0.0135712ZM9.15388 1.35206C2.58204 1.6355 -0.981005 9.17828 3.0096 14.4063C7.00021 19.6342 14.8072 18.3272 17.1034 12.4536C19.2413 6.98946 15.0606 1.08436 9.15388 1.33631V1.35206Z" fill="#A02621"/>
<path d="M9.40725 7.91853C9.86649 7.83979 10.1357 8.28071 10.1832 8.69013C10.3416 10.3593 10.0565 12.2647 10.1832 13.9653C10.0565 14.7212 8.94801 14.7842 8.853 13.8079C8.69464 12.1387 8.97968 10.2333 8.853 8.53266C8.88467 8.2807 9.16971 7.96577 9.40725 7.91853Z" fill="#A02621"/>
<path d="M9.23306 5.13132C10.5474 4.83213 10.8008 6.61153 9.69229 6.83199C8.58379 7.05244 8.21957 5.36752 9.23306 5.13132Z" fill="#A02621"/>
</svg>
