<svg width="23" height="23" viewBox="0 0 23 23" fill="none" xmlns="http://www.w3.org/2000/svg">
<path d="M21.62 11.7396C21.62 10.9921 21.5529 10.2733 21.4283 9.58334H11.5V13.6658H17.1733C16.9242 14.9788 16.1767 16.0904 15.0554 16.8379V19.4925H18.4767C20.47 17.6525 21.62 14.95 21.62 11.7396Z" fill="#4285F4"/>
<path d="M11.5 22.0417C14.3463 22.0417 16.7325 21.1025 18.4767 19.4925L15.0554 16.8379C14.1163 17.4704 12.9183 17.8537 11.5 17.8537C8.75917 17.8537 6.43042 16.0042 5.59667 13.5125H2.08917V16.2342C3.82376 19.6746 7.37917 22.0417 11.5 22.0417Z" fill="#34A853"/>
<path d="M5.59668 13.5029C5.38584 12.8704 5.26126 12.1996 5.26126 11.5C5.26126 10.8004 5.38584 10.1296 5.59668 9.49708V6.77541H2.08918C1.37043 8.19375 0.958344 9.79416 0.958344 11.5C0.958344 13.2058 1.37043 14.8062 2.08918 16.2246L4.82043 14.0971L5.59668 13.5029Z" fill="#FBBC05"/>
<path d="M11.5 5.15584C13.0525 5.15584 14.4325 5.6925 15.5346 6.7275L18.5533 3.70875C16.7229 2.00292 14.3463 0.958336 11.5 0.958336C7.37917 0.958336 3.82376 3.32542 2.08917 6.77542L5.59667 9.49709C6.43042 7.00542 8.75917 5.15584 11.5 5.15584Z" fill="#EA4335"/>
</svg>
