<svg width="32" height="25" viewBox="0 0 32 25" fill="none" xmlns="http://www.w3.org/2000/svg">
<path d="M13.6984 1.77919C14.2189 0.9244 15.2553 0.396311 16.2645 0.517145C17.5906 0.620077 18.713 1.83289 18.6768 3.15312C18.713 4.34356 17.8169 5.43554 16.6719 5.73986C16.6673 5.82042 16.6583 5.97705 16.6492 6.05313C20.3921 6.2232 24.0896 7.79852 26.6331 10.5419C28.7105 12.7482 29.9777 15.7243 29.9505 18.7497C29.9867 19.1569 29.5704 19.4791 29.1811 19.4254H2.80485C2.42016 19.4747 2.00379 19.1614 2.03999 18.7586C2.02189 16.6507 2.62382 14.5518 3.70096 12.7393C5.26235 10.0988 7.80132 8.07599 10.6842 7.00191C12.1732 6.43354 13.7527 6.14712 15.3413 6.04418C15.3368 5.9681 15.3232 5.80699 15.3187 5.73091C14.6896 5.54295 14.1103 5.16254 13.7482 4.6076C13.178 3.77966 13.1599 2.62055 13.6984 1.77024M15.5087 1.90002C14.9475 2.09694 14.5719 2.69216 14.6353 3.27843C14.6805 3.9542 15.3141 4.52705 15.9975 4.50914C16.7714 4.53152 17.4503 3.79309 17.3507 3.02781C17.2964 2.17302 16.3053 1.55542 15.5042 1.90002M13.6396 7.55685C10.553 8.07151 7.63839 9.70053 5.70136 12.1575C4.34815 13.8581 3.50635 15.9615 3.3751 18.1276C11.7885 18.1052 20.1975 18.1365 28.6109 18.1142C28.4027 14.4399 26.09 11.0789 22.9174 9.23062C20.1612 7.58817 16.7986 7.01533 13.6351 7.56132L13.6396 7.55685Z" fill="white"/>
<path d="M2.58761 20.598C11.4129 20.5666 20.2337 20.598 29.0589 20.5846C29.326 20.5756 29.6337 20.589 29.8057 20.8262C30.4981 21.6855 31.168 22.5582 31.8468 23.4264C32.2768 23.9008 31.7246 24.6213 31.1408 24.4826C21.003 24.4826 10.8698 24.4826 0.736567 24.4826C0.234205 24.5497 -0.191219 23.95 0.0893794 23.5204C0.686783 22.7014 1.3385 21.9272 1.94948 21.1171C2.12146 20.9112 2.28891 20.6248 2.58761 20.6025M3.01304 21.8913C2.67813 22.321 2.35227 22.7506 2.00379 23.1668C11.3314 23.1758 20.6591 23.1758 29.9867 23.1668C29.6382 22.7506 29.3079 22.321 28.9775 21.8913C20.3242 21.8913 11.6663 21.8913 3.01304 21.8913Z" fill="white"/>
</svg>
