<svg width="167" height="58" viewBox="0 0 167 58" fill="none" xmlns="http://www.w3.org/2000/svg">
<path d="M141.052 0C142.243 0.0751787 143.412 0.300715 144.592 0.418853C145.881 0.526251 147.148 0.751787 148.427 0.880664C149.749 1.00954 151.06 1.23508 152.382 1.35322C153.584 1.47135 154.774 1.69689 155.976 1.78281L156.042 1.82577C157.604 1.95465 159.156 2.2124 160.718 2.3735C160.751 2.91049 160.795 3.45822 160.816 3.99521C160.292 4.04891 159.768 4.09187 159.243 4.11335C159.068 5.76728 158.926 7.43195 158.73 9.09662C158.566 10.3424 158.5 11.6097 158.347 12.8556C158.26 13.6825 158.14 14.5095 158.096 15.3364C158.347 15.3901 158.599 15.4546 158.861 15.519C158.894 16.0131 158.959 16.5071 158.992 17.0119H157.932C157.79 18.3006 157.626 19.5894 157.528 20.8782C157.353 22.3495 157.2 23.8209 157.058 25.2923C156.949 26.6347 156.719 27.9557 156.665 29.2982C156.96 29.3089 157.244 29.3304 157.539 29.3519C157.55 29.6741 157.572 29.9963 157.582 30.3185C157.397 30.3185 157.211 30.3185 157.036 30.3292C157.036 30.5762 157.036 30.834 157.047 31.081C155.31 30.877 153.573 30.7696 151.846 30.5548C151.016 30.4474 150.164 30.4259 149.333 30.3077C149.454 29.0834 149.541 27.8591 149.672 26.6455C147.935 26.3985 146.187 26.1837 144.45 25.9581C144.373 27.0321 144.264 28.1061 144.22 29.1801C142.887 29.0619 141.565 28.8686 140.232 28.6753C139.074 28.4927 137.894 28.4283 136.747 28.1813C136.441 28.1168 136.135 28.0631 135.829 28.0202C135.796 27.5154 135.807 27.0106 135.731 26.5058C136.321 26.4092 136.933 26.4414 137.523 26.3555C137.61 25.1741 137.818 24.0142 137.981 22.8436C138.113 21.5441 138.342 20.266 138.495 18.9772C138.724 17.1944 138.987 15.4224 139.205 13.6503H138.67C138.703 13.1563 138.735 12.6622 138.801 12.1789C139.008 12.1252 139.205 12.0715 139.413 12.0178C139.598 10.8042 139.751 9.57991 139.937 8.36631C140.068 7.03457 140.33 5.71358 140.462 4.38184C140.582 3.29712 140.8 2.23388 140.888 1.14916L140.942 1.07398C140.942 0.708827 140.986 0.354414 141.052 0ZM146.908 13.1133C146.689 14.4558 146.58 15.8197 146.351 17.1622C146.187 18.494 145.979 19.8257 145.826 21.1574C147.268 21.2111 148.711 21.3078 150.142 21.3937C150.317 18.6336 150.393 15.8734 150.546 13.1133C149.333 13.1133 148.121 13.1026 146.908 13.1133Z" fill="#A02621"/>
<path d="M2.03094 0.279235C6.79462 0.247016 11.5583 0.214796 16.3329 0.182577C16.5514 1.61097 16.6388 3.05011 16.8355 4.4785C17.0322 5.87468 17.1196 7.28159 17.3271 8.67777C17.4801 9.77323 17.5566 10.8687 17.6986 11.9749C17.797 12.8985 17.9718 13.8114 17.9718 14.7458C18.5181 14.8854 19.0862 14.778 19.6544 14.7887C19.3921 11.1479 19.0753 7.50713 18.8131 3.85559C18.6929 2.64199 18.6273 1.42839 18.4962 0.214796C18.7257 0.193317 18.9551 0.171837 19.1955 0.171837C23.2162 0.182577 27.2478 0.171837 31.2685 0.171837C31.2576 0.322194 31.2467 0.472552 31.2467 0.622909H32.088C32.0989 1.02028 32.0989 1.41765 32.0771 1.82577H31.203C31.1921 1.96538 31.1811 2.11574 31.1593 2.25536C29.8373 2.89975 28.5043 3.60858 27.4882 4.67182C26.8436 5.33769 26.3738 6.22909 26.4175 7.17419C26.4175 8.10856 26.9091 8.94626 27.4336 9.68731C27.5975 10.7398 27.6412 11.8138 27.7723 12.8663C27.9908 14.5095 28.0891 16.1634 28.2967 17.7959C28.3732 18.3973 28.4387 19.0095 28.4825 19.6216C28.69 21.7266 28.9632 23.8424 29.138 25.9581C29.3893 27.8161 29.5095 29.6956 29.7389 31.5536C29.7717 31.7684 29.7826 31.9939 29.7826 32.2194C28.9195 32.1442 28.0454 32.1657 27.1823 32.1657C22.8229 32.155 18.4744 32.112 14.1149 32.1013C13.7981 30.0607 13.5905 28.0094 13.3064 25.9689C13.1862 24.5942 12.924 23.2409 12.7929 21.8663C12.3887 18.8698 12.0172 15.8734 11.6348 12.877H10.3674C10.4766 16.5715 10.7389 20.2553 10.8918 23.939C10.9683 25.2278 11.0011 26.5166 11.0885 27.8054C11.1431 29.2767 11.2961 30.7481 11.2961 32.2302C9.34034 32.2194 7.39554 32.2302 5.43981 32.2302H4.23797C3.34205 32.2194 2.4352 32.2731 1.53928 32.1979V31.4247H0.326508V29.7708H1.53928C1.53928 26.4736 1.52835 23.1765 1.52835 19.8794C1.51743 18.9558 1.5502 18.0321 1.5065 17.1193H0.337434V15.4331C0.719839 15.4331 1.10224 15.4331 1.48465 15.4438C1.5065 11.0942 1.48465 6.75534 1.48465 2.40572C1.10224 2.40572 0.719839 2.40572 0.34836 2.41646C0.326508 1.85799 0.337434 1.28878 0.337434 0.730307H1.48465C1.48465 0.601429 1.48465 0.483291 1.47372 0.365154C1.63761 0.300715 1.83428 0.279235 2.03094 0.279235Z" fill="#A02621"/>
<path d="M66.712 0.859185C68.7552 0.773266 70.8092 0.805486 72.8524 0.784006C72.9616 2.92123 73.2239 5.03697 73.3331 7.17419C73.4314 8.33409 73.5079 9.49399 73.639 10.6539H75.267C75.3763 8.26965 75.562 5.89616 75.6385 3.51192C75.7477 2.57755 75.6931 1.62171 75.8024 0.687348C81.1014 0.773266 86.4004 0.784006 91.6995 0.869925C91.6995 5.4773 91.6886 10.0954 91.6776 14.7028H92.8685V15.9057H91.6776C91.6667 21.0608 91.6339 26.2159 91.6339 31.371H92.8685V32.5738H91.623C91.623 32.7886 91.6121 33.0034 91.6121 33.2075C89.4925 33.1968 87.3838 33.186 85.2642 33.1753C84.554 33.1216 83.8438 33.1216 83.1336 33.1216C82.8823 29.266 82.7184 25.4104 82.4781 21.5548C82.3469 19.6324 82.3032 17.7099 82.1612 15.7983H80.1509C80.1181 21.5978 80.0962 27.408 80.0635 33.2075H69.1376C69.1048 30.8984 69.0393 28.5894 69.0283 26.2803C69.0065 25.1634 69.0502 24.0464 68.9628 22.9402C68.9191 20.6204 68.9628 18.2899 68.8644 15.9701C68.2635 15.9916 67.6626 16.0668 67.0617 16.1312C66.7885 21.877 66.5919 27.6335 66.3406 33.3793C64.2319 33.3256 62.1232 33.2827 60.0145 33.2719C59.2388 33.2075 58.4521 33.2182 57.6654 33.2075C57.6654 32.9927 57.6654 32.7779 57.6545 32.5631H56.5619V31.3602H57.6436C57.6436 29.8459 57.6326 28.3316 57.6217 26.8173C57.5343 23.1765 57.5562 19.5357 57.5343 15.9057H56.551V14.7028C56.8788 14.7028 57.2065 14.6921 57.5343 14.6598C57.5125 13.8758 57.5125 13.0811 57.5125 12.2971L57.4578 12.2219C57.4578 8.45223 57.436 4.68256 57.4141 0.902144C60.5499 0.902144 63.631 0.880664 66.712 0.859185ZM73.5079 15.9164V16.7756C73.2676 16.7756 73.0272 16.7756 72.7978 16.7863V18.4832C73.0381 18.4832 73.2676 18.4832 73.5079 18.494V19.3424H75.704V18.494H76.4142V16.7863H75.704V15.9271C74.972 15.9057 74.24 15.9164 73.5079 15.9164Z" fill="#A02621"/>
<path d="M104.734 2.36276C107.826 2.2661 110.929 2.29832 114.021 2.25536C115.234 2.16944 116.457 2.23388 117.681 2.19092C117.801 5.52026 117.911 8.8496 118.02 12.1789C118.719 12.3293 119.418 12.4582 120.118 12.5978C120.271 10.3747 120.292 8.14077 120.347 5.91763C120.489 4.68256 120.325 3.426 120.5 2.19092C123.625 2.23388 126.739 2.16944 129.864 2.23388C132.912 2.27684 135.96 2.25536 139.008 2.27684C138.921 3.52266 138.637 4.747 138.517 5.99281C138.276 7.61453 138.069 9.2255 137.839 10.8472C137.49 11.1372 137.118 11.4379 136.922 11.8567C136.648 12.3615 136.638 12.9737 136.856 13.4892C136.943 13.7684 137.162 14.0262 137.086 14.3376C136.583 17.6348 136.179 20.9534 135.665 24.2505C135.064 25.2171 134.409 26.2159 134.288 27.365C134.212 27.9879 134.431 28.6323 134.868 29.0941C135.578 29.8352 136.605 30.1252 137.577 30.3507C138.768 30.5548 139.97 30.7159 141.183 30.7481C141.248 31.575 141.314 32.402 141.314 33.229C136.911 33.3256 132.497 33.3256 128.094 33.3901C128.006 30.9843 127.755 28.5786 127.613 26.1729C127.482 23.7672 127.263 21.3615 127.121 18.945C127.056 17.9355 127.012 16.9367 126.914 15.9271C126.378 16.0131 125.843 16.0345 125.307 16.099C125.286 16.7756 125.307 17.4522 125.275 18.1288C125.133 19.5142 125.264 20.9104 125.133 22.2958C125.111 25.9366 124.925 29.5774 124.849 33.2182H114.108C114.098 31.6932 113.999 30.1681 113.999 28.6323C113.901 25.8722 113.835 23.1228 113.824 20.3627C113.715 19.0417 113.77 17.7099 113.737 16.3782C113.726 16.2171 113.704 16.0668 113.671 15.9164C113.158 15.9271 112.633 15.9271 112.12 15.9164C111.967 17.9677 111.88 20.019 111.781 22.0703C111.541 25.8185 111.355 29.5667 111.158 33.3149C107.815 33.2719 104.472 33.3041 101.129 33.2075C100.2 33.2075 99.2711 33.1967 98.3424 33.186C98.3424 32.9497 98.3424 32.7135 98.3533 32.4664H96.9985V30.9629H98.3752C98.3643 29.3197 98.4626 27.6765 98.4517 26.0333C98.4626 24.7445 98.4735 23.4557 98.4844 22.167C98.5937 20.8567 98.5282 19.5465 98.5609 18.2362H96.9985V16.7434H98.5719C98.6702 12.5871 98.6811 8.42001 98.7904 4.2637C98.1895 4.25296 97.5994 4.2637 96.9985 4.2637V2.77087H98.8122C98.8122 2.67421 98.8232 2.47016 98.8232 2.3735C100.79 2.39498 102.756 2.36276 104.734 2.36276Z" fill="#A02621"/>
<path d="M33.7159 5.54174C38.3813 4.97253 43.0575 4.39258 47.7229 3.84485C47.9523 5.11215 48.0507 6.41167 48.2583 7.6897C48.4768 9.0644 48.597 10.4498 48.8264 11.8138C49.2197 14.9606 49.6896 18.0966 50.0829 21.2433C50.356 22.951 50.5199 24.6801 50.7931 26.3877C50.9242 27.6765 51.1536 28.9545 51.2847 30.2326C51.8638 30.297 52.4538 30.3077 53.0329 30.3292C53.011 30.8447 52.9564 31.3602 52.9455 31.8758C52.0932 32.0261 51.2519 32.2516 50.3888 32.2731L50.3233 32.3268C49.2525 32.4127 48.1927 32.6275 47.122 32.7349C46.2807 32.8209 45.4503 32.982 44.609 33.0571C44.5216 31.9831 44.4124 30.9199 44.3359 29.8459C42.5877 29.9963 40.8505 30.3077 39.1024 30.5011C39.2444 31.7147 39.3755 32.939 39.4629 34.1633C37.7694 34.3352 36.0869 34.5285 34.3933 34.6681C33.4974 34.7325 32.6124 34.8829 31.7056 34.9366C31.7274 34.6896 31.7602 34.4426 31.7821 34.1956C31.5854 34.1956 31.3997 34.1848 31.203 34.1848C31.2248 33.8626 31.2576 33.5297 31.2795 33.2075C31.5745 33.1968 31.8585 33.186 32.1535 33.186C32.0443 31.9939 31.8695 30.8125 31.793 29.6204C31.6837 28.439 31.5198 27.2684 31.4106 26.087C31.356 25.7326 31.3669 25.3674 31.3013 25.013C31.2139 23.8316 31.0391 22.6503 30.9298 21.4689C30.8206 20.0727 30.6348 18.6873 30.4928 17.2911C30.3289 15.315 30.0667 13.3496 29.8919 11.3735C29.8045 10.2458 29.5969 9.12884 29.575 8.00116C29.3893 7.97968 29.2036 7.9582 29.0069 7.94746C28.6682 7.9045 28.3295 7.89376 27.9799 7.87228C27.9689 7.31381 28.0673 6.76608 28.0782 6.21835C29.9684 6.03577 31.8367 5.7458 33.7159 5.54174ZM38.2393 16.9259C38.4031 19.6753 38.4905 22.4355 38.6326 25.1956C40.0857 25.1956 41.5389 25.0775 42.992 24.9915C42.8609 24.186 42.7735 23.3698 42.6752 22.5536C42.3692 20.6849 42.2053 18.7947 41.8666 16.9259C40.6539 16.9367 39.4411 16.9259 38.2393 16.9259Z" fill="#A02621"/>
<circle cx="132.43" cy="29.4778" r="4.36707" fill="#A02621"/>
<mask id="path-3-outside-1_32_13" maskUnits="userSpaceOnUse" x="79.3009" y="11.2848" width="88" height="47" fill="black">
<rect fill="white" x="79.3009" y="11.2848" width="88" height="47"/>
<path d="M83.7105 43.4409C83.9205 43.3152 84.2565 43.1057 84.7186 42.8124C85.1806 42.5191 85.6847 42.1839 86.2308 41.8068C86.7978 41.4297 87.3859 41.0317 87.995 40.6127C88.604 40.1937 89.1501 39.7852 89.6332 39.3872C90.1372 38.9891 90.5468 38.6225 90.8618 38.2873C91.1768 37.9521 91.3344 37.6798 91.3344 37.4703C91.3344 37.2817 91.1979 37.1665 90.9248 37.1246C90.6728 37.0827 90.4838 37.0618 90.3578 37.0618C89.6227 37.0618 88.8876 37.0827 88.1525 37.1246C87.4174 37.1665 86.6823 37.1875 85.9472 37.1875C85.6742 37.1875 85.3907 37.1665 85.0966 37.1246C84.8236 37.0827 84.5716 36.9989 84.3405 36.8732C84.1095 36.7475 83.9205 36.5799 83.7735 36.3704C83.6264 36.14 83.5529 35.8572 83.5529 35.522C83.5529 35.2077 83.6894 34.8411 83.9625 34.4221C84.2145 33.9822 84.5506 33.5318 84.9706 33.0709C85.4117 32.5891 85.8947 32.1282 86.4198 31.6882C86.9658 31.2273 87.5014 30.8188 88.0265 30.4627C88.5515 30.0856 89.0451 29.7923 89.5071 29.5828C89.9902 29.3524 90.3893 29.2371 90.7043 29.2371C91.1663 29.2371 91.5759 29.3943 91.9329 29.7085C92.311 30.0018 92.5 30.3894 92.5 30.8712C92.5 31.1645 92.4265 31.4159 92.2795 31.6254C92.1325 31.8349 91.9119 31.9396 91.6179 31.9396C91.3659 31.9396 91.1348 31.8663 90.9248 31.7196C90.7358 31.5521 90.6308 31.3426 90.6098 31.0912C90.2737 31.175 89.8537 31.3949 89.3496 31.7511C88.8666 32.0863 88.373 32.4738 87.869 32.9138C87.3859 33.3537 86.9238 33.7936 86.4828 34.2336C86.0627 34.6735 85.7477 35.0401 85.5377 35.3334C86.2938 35.3334 87.0499 35.3125 87.8059 35.2706C88.562 35.2287 89.3076 35.2077 90.0427 35.2077C90.3578 35.2077 90.6728 35.2287 90.9878 35.2706C91.3239 35.3125 91.6389 35.3963 91.9329 35.522C92.5 35.7734 92.8676 36.0771 93.0356 36.4333C93.2246 36.7894 93.2666 37.177 93.1616 37.596C93.7707 37.2189 94.3587 36.8209 94.9258 36.4019C95.4929 36.0038 95.9969 35.6477 96.438 35.3334C96.9 34.9982 97.2781 34.7259 97.5721 34.5164C97.8872 34.3069 98.0867 34.2022 98.1707 34.2022C98.4227 34.2231 98.6327 34.3383 98.8008 34.5478C98.9898 34.7573 99.0738 34.9878 99.0528 35.2392C99.0318 35.4068 98.8113 35.6791 98.3912 36.0562C97.9712 36.4333 97.4461 36.8523 96.816 37.3132C96.186 37.7741 95.4929 38.2349 94.7368 38.6958C93.9807 39.1777 93.2561 39.6071 92.563 39.9842C92.122 40.2147 91.7229 40.4346 91.3659 40.6441C91.0088 40.8746 90.6623 41.105 90.3262 41.3355C89.9902 41.5869 89.6542 41.8383 89.3181 42.0897C88.9821 42.341 88.625 42.6029 88.247 42.8753C88.1 42.98 87.8374 43.1581 87.4594 43.4095C87.0814 43.6818 86.6718 43.9437 86.2308 44.1951C85.8107 44.4674 85.4012 44.6979 85.0021 44.8864C84.6031 45.0959 84.309 45.2007 84.12 45.2007C83.868 45.2007 83.6684 45.0959 83.5214 44.8864C83.3744 44.6769 83.3009 44.4569 83.3009 44.2265C83.3009 43.9123 83.4374 43.6504 83.7105 43.4409Z"/>
<path d="M97.8525 37.156C97.8945 36.0038 97.926 34.8411 97.947 33.668C97.947 32.4738 98.01 31.3111 98.136 30.1799C98.199 29.5933 98.5245 29.3 99.1126 29.3C99.7007 29.3 99.9947 29.5933 99.9947 30.1799C99.9947 30.5151 99.9842 30.8398 99.9632 31.154C99.9422 31.4683 99.9212 31.793 99.9002 32.1282C100.173 31.8349 100.52 31.4997 100.94 31.1226C101.36 30.7245 101.811 30.3475 102.294 29.9913C102.799 29.6352 103.292 29.3419 103.775 29.1114C104.279 28.86 104.741 28.7343 105.161 28.7343C105.497 28.7343 105.802 28.8077 106.075 28.9543C106.369 29.101 106.611 29.2895 106.8 29.5199C107.01 29.7504 107.167 30.0227 107.272 30.337C107.377 30.6512 107.43 30.9655 107.43 31.2797C107.43 32.1805 107.178 33.0499 106.674 33.8879C106.169 34.705 105.529 35.4591 104.752 36.1505C103.975 36.8209 103.135 37.3865 102.231 37.8474C101.328 38.3083 100.478 38.6225 99.6797 38.7901L99.6482 41.6183C99.6482 43.4618 99.6902 45.2845 99.7742 47.0861C99.8792 48.9087 99.9317 50.7418 99.9317 52.5854C99.9317 52.8577 99.8582 53.0777 99.7112 53.2453C99.5642 53.4129 99.3436 53.4967 99.0496 53.4967C98.7766 53.4967 98.556 53.4129 98.388 53.2453C98.22 53.0777 98.115 52.8577 98.073 52.5854C97.905 50.8046 97.8209 49.003 97.8209 47.1804C97.7999 45.3578 97.7894 43.5561 97.7894 41.7754L97.8209 39.0101C97.4639 39.0101 97.1384 38.9577 96.8443 38.853C96.5293 38.7482 96.3718 38.4759 96.3718 38.0359C96.3718 37.575 96.5293 37.3027 96.8443 37.2189C97.1594 37.156 97.4954 37.1351 97.8525 37.156ZM99.7427 36.9047C100.184 36.779 100.677 36.5799 101.223 36.3076C101.79 36.0143 102.336 35.6791 102.862 35.302C103.387 34.904 103.87 34.4745 104.311 34.0136C104.752 33.5318 105.088 33.0395 105.319 32.5367C105.55 32.0339 105.613 31.6149 105.508 31.2797C105.403 30.9445 105.172 30.7769 104.815 30.7769C104.437 30.7769 103.996 30.9655 103.492 31.3426C103.009 31.7196 102.526 32.1701 102.042 32.6938C101.559 33.2175 101.108 33.7413 100.688 34.265C100.289 34.7678 99.9947 35.1658 99.8057 35.4591L99.7742 35.4906C99.7532 35.721 99.7427 35.9619 99.7427 36.2133C99.7427 36.4438 99.7427 36.6742 99.7427 36.9047Z"/>
<path d="M113.886 30.117C114.201 30.117 114.516 30.1694 114.831 30.2741C115.146 30.3579 115.43 30.4941 115.682 30.6826C115.934 30.8502 116.133 31.0702 116.28 31.3426C116.427 31.594 116.501 31.8977 116.501 32.2539C116.501 32.9033 116.28 33.4794 115.839 33.9822C115.398 34.485 114.852 34.9144 114.201 35.2706C113.571 35.6058 112.899 35.8781 112.185 36.0876C111.492 36.2762 110.883 36.3914 110.357 36.4333C110.694 37.0199 111.124 37.4493 111.649 37.7217C112.195 38.015 112.804 38.1616 113.476 38.1616C114.358 38.1616 115.188 37.9521 115.965 37.5331C116.763 37.1351 117.477 36.6952 118.107 36.2133C118.758 35.7315 119.315 35.2915 119.777 34.8935C120.239 34.4745 120.586 34.265 120.817 34.265C121.048 34.265 121.268 34.3593 121.478 34.5478C121.688 34.7364 121.793 34.9563 121.793 35.2077C121.793 35.3334 121.762 35.4487 121.699 35.5534C121.657 35.6372 121.594 35.7315 121.51 35.8362C121.027 36.339 120.47 36.8418 119.84 37.3446C119.21 37.8474 118.538 38.2873 117.824 38.6644C117.11 39.0625 116.375 39.3872 115.619 39.6386C114.884 39.89 114.148 40.0157 113.413 40.0157C112.783 40.0157 112.164 39.9004 111.555 39.67C110.946 39.4605 110.389 39.1567 109.885 38.7587C109.402 38.3606 109.013 37.8788 108.719 37.3132C108.425 36.7475 108.278 36.1295 108.278 35.4591C108.278 34.6631 108.446 33.9403 108.782 33.2909C109.118 32.6414 109.549 32.0863 110.074 31.6254C110.62 31.1435 111.229 30.7769 111.901 30.5255C112.573 30.2532 113.235 30.117 113.886 30.117ZM114.327 32.9138C114.579 32.6624 114.663 32.4424 114.579 32.2539C114.495 32.0444 114.264 31.9396 113.886 31.9396C113.55 31.9396 113.193 32.0234 112.815 32.191C112.437 32.3377 112.08 32.5367 111.744 32.7881C111.429 33.0395 111.145 33.3223 110.893 33.6365C110.641 33.9508 110.452 34.265 110.326 34.5793C110.515 34.6002 110.788 34.5688 111.145 34.485C111.502 34.3802 111.88 34.2545 112.279 34.1079C112.678 33.9403 113.067 33.7517 113.445 33.5423C113.823 33.3328 114.117 33.1233 114.327 32.9138Z"/>
<path d="M124.311 30.2113C125.047 30.2113 125.687 30.4522 126.233 30.934C126.779 31.4159 127.052 32.0339 127.052 32.7881C127.052 33.1023 126.979 33.4061 126.832 33.6994C126.706 33.9717 126.454 34.1079 126.076 34.1079C125.845 34.1079 125.624 34.0346 125.414 33.8879C125.225 33.7203 125.131 33.5004 125.131 33.228C125.131 33.0814 125.131 32.9347 125.131 32.7881C125.131 32.6414 125.11 32.5157 125.068 32.411C125.026 32.3062 124.942 32.2224 124.816 32.1596C124.71 32.0758 124.542 32.0339 124.311 32.0339C123.912 32.0339 123.555 32.2015 123.24 32.5367C122.946 32.8509 122.694 33.228 122.484 33.668C122.274 34.1079 122.117 34.5688 122.012 35.0506C121.907 35.5325 121.854 35.9305 121.854 36.2447C121.854 36.6847 121.959 37.0932 122.169 37.4703C122.379 37.8683 122.736 38.0673 123.24 38.0673C124.059 38.0673 124.889 37.8683 125.729 37.4703C126.569 37.0722 127.346 36.6323 128.06 36.1505C128.774 35.6477 129.384 35.1973 129.888 34.7992C130.413 34.4012 130.759 34.2022 130.927 34.2022C131.179 34.2022 131.4 34.3069 131.589 34.5164C131.778 34.705 131.872 34.9249 131.872 35.1763C131.872 35.4277 131.788 35.6372 131.62 35.8048C131.137 36.3285 130.57 36.8313 129.919 37.3132C129.268 37.816 128.575 38.2559 127.84 38.633C127.105 39.031 126.338 39.3453 125.54 39.5757C124.763 39.8062 123.996 39.9214 123.24 39.9214C122.715 39.9214 122.243 39.8166 121.823 39.6071C121.424 39.3976 121.088 39.1148 120.815 38.7587C120.562 38.4235 120.373 38.0254 120.247 37.5646C120.1 37.1246 120.027 36.6637 120.027 36.1819C120.027 35.5744 120.121 34.9249 120.31 34.2336C120.478 33.5423 120.741 32.9033 121.098 32.3167C121.455 31.7092 121.896 31.2064 122.421 30.8083C122.967 30.4103 123.597 30.2113 124.311 30.2113Z"/>
<path d="M131.626 31.4368C131.9 31.4368 132.12 31.5206 132.288 31.6882C132.456 31.8558 132.54 32.0758 132.54 32.3481C132.54 32.6414 132.519 32.9452 132.477 33.2594C132.435 33.5527 132.414 33.846 132.414 34.1393C132.414 35.522 132.551 36.5066 132.824 37.0932C133.097 37.7007 133.475 38.0045 133.958 38.0045C134.504 38.0045 135.155 37.7112 135.911 37.1246C136.688 36.538 137.549 35.7839 138.494 34.8621C138.641 34.7154 138.757 34.5897 138.841 34.485C138.925 34.3593 139.019 34.2964 139.124 34.2964C139.376 34.2964 139.586 34.3698 139.754 34.5164C139.922 34.6421 140.006 34.8307 140.006 35.082C140.006 35.2077 139.975 35.3544 139.912 35.522C139.849 35.6896 139.754 35.8467 139.628 35.9933C138.494 37.2503 137.423 38.193 136.415 38.8215C135.407 39.45 134.504 39.7643 133.706 39.7643C132.74 39.7643 131.973 39.2929 131.406 38.3502C130.86 37.4284 130.587 36.0352 130.587 34.1707C130.587 33.9612 130.587 33.6994 130.587 33.3851C130.587 33.0709 130.618 32.7776 130.681 32.5053C130.723 32.212 130.818 31.9606 130.965 31.7511C131.112 31.5416 131.332 31.4368 131.626 31.4368ZM132.131 26.4089C132.362 26.4089 132.561 26.4927 132.729 26.6603C132.897 26.8279 132.981 27.027 132.981 27.2574C132.981 27.4459 132.981 27.6869 132.981 27.9802C132.981 28.2735 132.95 28.5563 132.887 28.8286C132.824 29.101 132.719 29.3314 132.572 29.5199C132.425 29.7085 132.215 29.8028 131.942 29.8028C131.71 29.8028 131.5 29.719 131.311 29.5514C131.122 29.3628 131.028 29.1533 131.028 28.9229C131.028 28.6924 131.028 28.441 131.028 28.1687C131.028 27.8754 131.059 27.6031 131.122 27.3517C131.185 27.0793 131.29 26.8594 131.437 26.6918C131.605 26.5032 131.837 26.4089 132.131 26.4089Z"/>
<path d="M142.709 31.0912C143.15 31.0912 143.57 31.175 143.969 31.3426C144.389 31.5102 144.778 31.7092 145.135 31.9396C145.219 31.772 145.345 31.6463 145.513 31.5625C145.681 31.4787 145.849 31.4368 146.017 31.4368C146.269 31.4368 146.479 31.5311 146.647 31.7196C146.815 31.9082 146.899 32.1177 146.899 32.3481C146.899 32.5157 146.878 32.6833 146.836 32.8509C146.815 33.0185 146.794 33.1861 146.773 33.3537C146.752 33.5632 146.742 33.9089 146.742 34.3907C146.742 34.8516 146.784 35.323 146.868 35.8048C146.952 36.2866 147.088 36.7056 147.277 37.0618C147.487 37.4389 147.781 37.6274 148.159 37.6274C148.705 37.6274 149.22 37.4074 149.703 36.9675C150.207 36.5276 150.669 36.0562 151.089 35.5534C151.509 35.0297 151.887 34.5478 152.223 34.1079C152.559 33.668 152.832 33.448 153.042 33.448C153.294 33.448 153.515 33.5423 153.704 33.7308C153.914 33.9193 154.019 34.1393 154.019 34.3907C154.019 34.7887 153.798 35.2811 153.357 35.8677C152.937 36.4542 152.423 37.0094 151.814 37.5331C151.226 38.0778 150.596 38.5387 149.924 38.9158C149.272 39.2929 148.705 39.4814 148.222 39.4814C147.697 39.4814 147.246 39.3662 146.868 39.1358C146.49 38.9263 146.164 38.6435 145.891 38.2873C145.639 37.9312 145.439 37.5227 145.292 37.0618C145.145 36.6218 145.051 36.1819 145.009 35.742C144.757 36.119 144.431 36.559 144.032 37.0618C143.633 37.5855 143.203 38.0778 142.741 38.5387C142.279 39.0206 141.785 39.4186 141.26 39.7328C140.756 40.068 140.252 40.2356 139.748 40.2356C139.433 40.2356 139.17 40.1623 138.96 40.0157C138.729 39.869 138.551 39.67 138.425 39.4186C138.299 39.1881 138.204 38.9263 138.141 38.633C138.078 38.3606 138.047 38.0883 138.047 37.816C138.047 37.1246 138.131 36.3809 138.299 35.5848C138.467 34.7888 138.74 34.066 139.118 33.4166C139.496 32.7462 139.979 32.191 140.567 31.7511C141.155 31.3111 141.869 31.0912 142.709 31.0912ZM140 38.3502H140.063C140.378 38.2245 140.735 37.9521 141.134 37.5331C141.533 37.1351 141.932 36.6952 142.331 36.2133C142.73 35.7105 143.098 35.2182 143.434 34.7364C143.791 34.2336 144.053 33.846 144.221 33.5737C143.99 33.4061 143.738 33.2594 143.465 33.1337C143.192 32.9871 142.909 32.9138 142.615 32.9138C142.111 32.9138 141.691 33.1023 141.355 33.4794C141.018 33.8355 140.735 34.2755 140.504 34.7992C140.294 35.302 140.136 35.8258 140.031 36.3704C139.947 36.9361 139.905 37.4074 139.905 37.7845C139.905 37.9731 139.937 38.1616 140 38.3502Z"/>
<path d="M152.396 31.1226C152.396 30.6826 152.427 29.9913 152.49 29.0486C152.553 28.0849 152.658 27.0165 152.805 25.8433C152.931 24.6701 153.099 23.4655 153.309 22.2295C153.54 20.9725 153.824 19.8308 154.16 18.8043C154.496 17.7778 154.895 16.9398 155.357 16.2903C155.819 15.62 156.344 15.2848 156.932 15.2848C157.247 15.2848 157.51 15.3581 157.72 15.5047C157.93 15.6514 158.098 15.8399 158.224 16.0704C158.35 16.2799 158.434 16.5313 158.476 16.8245C158.518 17.0969 158.539 17.3588 158.539 17.6102C158.539 18.511 158.445 19.4956 158.256 20.564C158.067 21.6115 157.804 22.659 157.468 23.7065C157.132 24.733 156.733 25.7281 156.271 26.6918C155.83 27.6554 155.347 28.5039 154.822 29.2371C154.675 29.4676 154.496 29.5933 154.286 29.6142C154.265 29.8447 154.255 30.0646 154.255 30.2741C154.255 30.4836 154.255 30.7036 154.255 30.934C154.255 31.1854 154.255 31.5416 154.255 32.0025C154.255 32.4634 154.276 32.9661 154.318 33.5108C154.36 34.0346 154.423 34.5793 154.507 35.1449C154.612 35.6896 154.759 36.1924 154.948 36.6533C155.158 37.1141 155.41 37.4912 155.704 37.7845C156.019 38.0778 156.397 38.2245 156.838 38.2245C157.237 38.2454 157.657 38.1511 158.098 37.9417C158.539 37.7322 158.959 37.4493 159.358 37.0932C159.778 36.758 160.167 36.36 160.524 35.8991C160.902 35.4382 161.217 34.9563 161.469 34.4536C161.679 34.0346 161.973 33.8879 162.351 34.0136C162.603 34.0765 162.782 34.2231 162.887 34.4536C163.013 34.684 163.034 34.9144 162.95 35.1449C162.719 35.8153 162.362 36.4542 161.878 37.0618C161.416 37.6693 160.881 38.193 160.272 38.633C159.684 39.0939 159.054 39.45 158.382 39.7014C157.73 39.9738 157.09 40.0994 156.46 40.0785C155.809 40.0576 155.252 39.89 154.79 39.5757C154.328 39.2615 153.95 38.853 153.656 38.3502C153.362 37.8683 153.131 37.3132 152.963 36.6847C152.795 36.0771 152.669 35.4487 152.585 34.7992C152.501 34.1288 152.448 33.4794 152.427 32.8509C152.406 32.2015 152.396 31.6254 152.396 31.1226ZM154.664 25.7176C154.937 25.152 155.189 24.5444 155.42 23.895C155.672 23.2456 155.882 22.5752 156.05 21.8839C156.239 21.1925 156.386 20.5117 156.491 19.8413C156.596 19.1499 156.649 18.49 156.649 17.8615V17.5159C156.46 17.7673 156.26 18.2701 156.05 19.0242C155.84 19.7575 155.641 20.5536 155.452 21.4125C155.263 22.2714 155.095 23.1094 154.948 23.9264C154.822 24.7435 154.727 25.3405 154.664 25.7176Z"/>
</mask>
<path d="M83.7105 43.4409C83.9205 43.3152 84.2565 43.1057 84.7186 42.8124C85.1806 42.5191 85.6847 42.1839 86.2308 41.8068C86.7978 41.4297 87.3859 41.0317 87.995 40.6127C88.604 40.1937 89.1501 39.7852 89.6332 39.3872C90.1372 38.9891 90.5468 38.6225 90.8618 38.2873C91.1768 37.9521 91.3344 37.6798 91.3344 37.4703C91.3344 37.2817 91.1979 37.1665 90.9248 37.1246C90.6728 37.0827 90.4838 37.0618 90.3578 37.0618C89.6227 37.0618 88.8876 37.0827 88.1525 37.1246C87.4174 37.1665 86.6823 37.1875 85.9472 37.1875C85.6742 37.1875 85.3907 37.1665 85.0966 37.1246C84.8236 37.0827 84.5716 36.9989 84.3405 36.8732C84.1095 36.7475 83.9205 36.5799 83.7735 36.3704C83.6264 36.14 83.5529 35.8572 83.5529 35.522C83.5529 35.2077 83.6894 34.8411 83.9625 34.4221C84.2145 33.9822 84.5506 33.5318 84.9706 33.0709C85.4117 32.5891 85.8947 32.1282 86.4198 31.6882C86.9658 31.2273 87.5014 30.8188 88.0265 30.4627C88.5515 30.0856 89.0451 29.7923 89.5071 29.5828C89.9902 29.3524 90.3893 29.2371 90.7043 29.2371C91.1663 29.2371 91.5759 29.3943 91.9329 29.7085C92.311 30.0018 92.5 30.3894 92.5 30.8712C92.5 31.1645 92.4265 31.4159 92.2795 31.6254C92.1325 31.8349 91.9119 31.9396 91.6179 31.9396C91.3659 31.9396 91.1348 31.8663 90.9248 31.7196C90.7358 31.5521 90.6308 31.3426 90.6098 31.0912C90.2737 31.175 89.8537 31.3949 89.3496 31.7511C88.8666 32.0863 88.373 32.4738 87.869 32.9138C87.3859 33.3537 86.9238 33.7936 86.4828 34.2336C86.0627 34.6735 85.7477 35.0401 85.5377 35.3334C86.2938 35.3334 87.0499 35.3125 87.8059 35.2706C88.562 35.2287 89.3076 35.2077 90.0427 35.2077C90.3578 35.2077 90.6728 35.2287 90.9878 35.2706C91.3239 35.3125 91.6389 35.3963 91.9329 35.522C92.5 35.7734 92.8676 36.0771 93.0356 36.4333C93.2246 36.7894 93.2666 37.177 93.1616 37.596C93.7707 37.2189 94.3587 36.8209 94.9258 36.4019C95.4929 36.0038 95.9969 35.6477 96.438 35.3334C96.9 34.9982 97.2781 34.7259 97.5721 34.5164C97.8872 34.3069 98.0867 34.2022 98.1707 34.2022C98.4227 34.2231 98.6327 34.3383 98.8008 34.5478C98.9898 34.7573 99.0738 34.9878 99.0528 35.2392C99.0318 35.4068 98.8113 35.6791 98.3912 36.0562C97.9712 36.4333 97.4461 36.8523 96.816 37.3132C96.186 37.7741 95.4929 38.2349 94.7368 38.6958C93.9807 39.1777 93.2561 39.6071 92.563 39.9842C92.122 40.2147 91.7229 40.4346 91.3659 40.6441C91.0088 40.8746 90.6623 41.105 90.3262 41.3355C89.9902 41.5869 89.6542 41.8383 89.3181 42.0897C88.9821 42.341 88.625 42.6029 88.247 42.8753C88.1 42.98 87.8374 43.1581 87.4594 43.4095C87.0814 43.6818 86.6718 43.9437 86.2308 44.1951C85.8107 44.4674 85.4012 44.6979 85.0021 44.8864C84.6031 45.0959 84.309 45.2007 84.12 45.2007C83.868 45.2007 83.6684 45.0959 83.5214 44.8864C83.3744 44.6769 83.3009 44.4569 83.3009 44.2265C83.3009 43.9123 83.4374 43.6504 83.7105 43.4409Z" fill="white"/>
<path d="M97.8525 37.156C97.8945 36.0038 97.926 34.8411 97.947 33.668C97.947 32.4738 98.01 31.3111 98.136 30.1799C98.199 29.5933 98.5245 29.3 99.1126 29.3C99.7007 29.3 99.9947 29.5933 99.9947 30.1799C99.9947 30.5151 99.9842 30.8398 99.9632 31.154C99.9422 31.4683 99.9212 31.793 99.9002 32.1282C100.173 31.8349 100.52 31.4997 100.94 31.1226C101.36 30.7245 101.811 30.3475 102.294 29.9913C102.799 29.6352 103.292 29.3419 103.775 29.1114C104.279 28.86 104.741 28.7343 105.161 28.7343C105.497 28.7343 105.802 28.8077 106.075 28.9543C106.369 29.101 106.611 29.2895 106.8 29.5199C107.01 29.7504 107.167 30.0227 107.272 30.337C107.377 30.6512 107.43 30.9655 107.43 31.2797C107.43 32.1805 107.178 33.0499 106.674 33.8879C106.169 34.705 105.529 35.4591 104.752 36.1505C103.975 36.8209 103.135 37.3865 102.231 37.8474C101.328 38.3083 100.478 38.6225 99.6797 38.7901L99.6482 41.6183C99.6482 43.4618 99.6902 45.2845 99.7742 47.0861C99.8792 48.9087 99.9317 50.7418 99.9317 52.5854C99.9317 52.8577 99.8582 53.0777 99.7112 53.2453C99.5642 53.4129 99.3436 53.4967 99.0496 53.4967C98.7766 53.4967 98.556 53.4129 98.388 53.2453C98.22 53.0777 98.115 52.8577 98.073 52.5854C97.905 50.8046 97.8209 49.003 97.8209 47.1804C97.7999 45.3578 97.7894 43.5561 97.7894 41.7754L97.8209 39.0101C97.4639 39.0101 97.1384 38.9577 96.8443 38.853C96.5293 38.7482 96.3718 38.4759 96.3718 38.0359C96.3718 37.575 96.5293 37.3027 96.8443 37.2189C97.1594 37.156 97.4954 37.1351 97.8525 37.156ZM99.7427 36.9047C100.184 36.779 100.677 36.5799 101.223 36.3076C101.79 36.0143 102.336 35.6791 102.862 35.302C103.387 34.904 103.87 34.4745 104.311 34.0136C104.752 33.5318 105.088 33.0395 105.319 32.5367C105.55 32.0339 105.613 31.6149 105.508 31.2797C105.403 30.9445 105.172 30.7769 104.815 30.7769C104.437 30.7769 103.996 30.9655 103.492 31.3426C103.009 31.7196 102.526 32.1701 102.042 32.6938C101.559 33.2175 101.108 33.7413 100.688 34.265C100.289 34.7678 99.9947 35.1658 99.8057 35.4591L99.7742 35.4906C99.7532 35.721 99.7427 35.9619 99.7427 36.2133C99.7427 36.4438 99.7427 36.6742 99.7427 36.9047Z" fill="white"/>
<path d="M113.886 30.117C114.201 30.117 114.516 30.1694 114.831 30.2741C115.146 30.3579 115.43 30.4941 115.682 30.6826C115.934 30.8502 116.133 31.0702 116.28 31.3426C116.427 31.594 116.501 31.8977 116.501 32.2539C116.501 32.9033 116.28 33.4794 115.839 33.9822C115.398 34.485 114.852 34.9144 114.201 35.2706C113.571 35.6058 112.899 35.8781 112.185 36.0876C111.492 36.2762 110.883 36.3914 110.357 36.4333C110.694 37.0199 111.124 37.4493 111.649 37.7217C112.195 38.015 112.804 38.1616 113.476 38.1616C114.358 38.1616 115.188 37.9521 115.965 37.5331C116.763 37.1351 117.477 36.6952 118.107 36.2133C118.758 35.7315 119.315 35.2915 119.777 34.8935C120.239 34.4745 120.586 34.265 120.817 34.265C121.048 34.265 121.268 34.3593 121.478 34.5478C121.688 34.7364 121.793 34.9563 121.793 35.2077C121.793 35.3334 121.762 35.4487 121.699 35.5534C121.657 35.6372 121.594 35.7315 121.51 35.8362C121.027 36.339 120.47 36.8418 119.84 37.3446C119.21 37.8474 118.538 38.2873 117.824 38.6644C117.11 39.0625 116.375 39.3872 115.619 39.6386C114.884 39.89 114.148 40.0157 113.413 40.0157C112.783 40.0157 112.164 39.9004 111.555 39.67C110.946 39.4605 110.389 39.1567 109.885 38.7587C109.402 38.3606 109.013 37.8788 108.719 37.3132C108.425 36.7475 108.278 36.1295 108.278 35.4591C108.278 34.6631 108.446 33.9403 108.782 33.2909C109.118 32.6414 109.549 32.0863 110.074 31.6254C110.62 31.1435 111.229 30.7769 111.901 30.5255C112.573 30.2532 113.235 30.117 113.886 30.117ZM114.327 32.9138C114.579 32.6624 114.663 32.4424 114.579 32.2539C114.495 32.0444 114.264 31.9396 113.886 31.9396C113.55 31.9396 113.193 32.0234 112.815 32.191C112.437 32.3377 112.08 32.5367 111.744 32.7881C111.429 33.0395 111.145 33.3223 110.893 33.6365C110.641 33.9508 110.452 34.265 110.326 34.5793C110.515 34.6002 110.788 34.5688 111.145 34.485C111.502 34.3802 111.88 34.2545 112.279 34.1079C112.678 33.9403 113.067 33.7517 113.445 33.5423C113.823 33.3328 114.117 33.1233 114.327 32.9138Z" fill="white"/>
<path d="M124.311 30.2113C125.047 30.2113 125.687 30.4522 126.233 30.934C126.779 31.4159 127.052 32.0339 127.052 32.7881C127.052 33.1023 126.979 33.4061 126.832 33.6994C126.706 33.9717 126.454 34.1079 126.076 34.1079C125.845 34.1079 125.624 34.0346 125.414 33.8879C125.225 33.7203 125.131 33.5004 125.131 33.228C125.131 33.0814 125.131 32.9347 125.131 32.7881C125.131 32.6414 125.11 32.5157 125.068 32.411C125.026 32.3062 124.942 32.2224 124.816 32.1596C124.71 32.0758 124.542 32.0339 124.311 32.0339C123.912 32.0339 123.555 32.2015 123.24 32.5367C122.946 32.8509 122.694 33.228 122.484 33.668C122.274 34.1079 122.117 34.5688 122.012 35.0506C121.907 35.5325 121.854 35.9305 121.854 36.2447C121.854 36.6847 121.959 37.0932 122.169 37.4703C122.379 37.8683 122.736 38.0673 123.24 38.0673C124.059 38.0673 124.889 37.8683 125.729 37.4703C126.569 37.0722 127.346 36.6323 128.06 36.1505C128.774 35.6477 129.384 35.1973 129.888 34.7992C130.413 34.4012 130.759 34.2022 130.927 34.2022C131.179 34.2022 131.4 34.3069 131.589 34.5164C131.778 34.705 131.872 34.9249 131.872 35.1763C131.872 35.4277 131.788 35.6372 131.62 35.8048C131.137 36.3285 130.57 36.8313 129.919 37.3132C129.268 37.816 128.575 38.2559 127.84 38.633C127.105 39.031 126.338 39.3453 125.54 39.5757C124.763 39.8062 123.996 39.9214 123.24 39.9214C122.715 39.9214 122.243 39.8166 121.823 39.6071C121.424 39.3976 121.088 39.1148 120.815 38.7587C120.562 38.4235 120.373 38.0254 120.247 37.5646C120.1 37.1246 120.027 36.6637 120.027 36.1819C120.027 35.5744 120.121 34.9249 120.31 34.2336C120.478 33.5423 120.741 32.9033 121.098 32.3167C121.455 31.7092 121.896 31.2064 122.421 30.8083C122.967 30.4103 123.597 30.2113 124.311 30.2113Z" fill="white"/>
<path d="M131.626 31.4368C131.9 31.4368 132.12 31.5206 132.288 31.6882C132.456 31.8558 132.54 32.0758 132.54 32.3481C132.54 32.6414 132.519 32.9452 132.477 33.2594C132.435 33.5527 132.414 33.846 132.414 34.1393C132.414 35.522 132.551 36.5066 132.824 37.0932C133.097 37.7007 133.475 38.0045 133.958 38.0045C134.504 38.0045 135.155 37.7112 135.911 37.1246C136.688 36.538 137.549 35.7839 138.494 34.8621C138.641 34.7154 138.757 34.5897 138.841 34.485C138.925 34.3593 139.019 34.2964 139.124 34.2964C139.376 34.2964 139.586 34.3698 139.754 34.5164C139.922 34.6421 140.006 34.8307 140.006 35.082C140.006 35.2077 139.975 35.3544 139.912 35.522C139.849 35.6896 139.754 35.8467 139.628 35.9933C138.494 37.2503 137.423 38.193 136.415 38.8215C135.407 39.45 134.504 39.7643 133.706 39.7643C132.74 39.7643 131.973 39.2929 131.406 38.3502C130.86 37.4284 130.587 36.0352 130.587 34.1707C130.587 33.9612 130.587 33.6994 130.587 33.3851C130.587 33.0709 130.618 32.7776 130.681 32.5053C130.723 32.212 130.818 31.9606 130.965 31.7511C131.112 31.5416 131.332 31.4368 131.626 31.4368ZM132.131 26.4089C132.362 26.4089 132.561 26.4927 132.729 26.6603C132.897 26.8279 132.981 27.027 132.981 27.2574C132.981 27.4459 132.981 27.6869 132.981 27.9802C132.981 28.2735 132.95 28.5563 132.887 28.8286C132.824 29.101 132.719 29.3314 132.572 29.5199C132.425 29.7085 132.215 29.8028 131.942 29.8028C131.71 29.8028 131.5 29.719 131.311 29.5514C131.122 29.3628 131.028 29.1533 131.028 28.9229C131.028 28.6924 131.028 28.441 131.028 28.1687C131.028 27.8754 131.059 27.6031 131.122 27.3517C131.185 27.0793 131.29 26.8594 131.437 26.6918C131.605 26.5032 131.837 26.4089 132.131 26.4089Z" fill="white"/>
<path d="M142.709 31.0912C143.15 31.0912 143.57 31.175 143.969 31.3426C144.389 31.5102 144.778 31.7092 145.135 31.9396C145.219 31.772 145.345 31.6463 145.513 31.5625C145.681 31.4787 145.849 31.4368 146.017 31.4368C146.269 31.4368 146.479 31.5311 146.647 31.7196C146.815 31.9082 146.899 32.1177 146.899 32.3481C146.899 32.5157 146.878 32.6833 146.836 32.8509C146.815 33.0185 146.794 33.1861 146.773 33.3537C146.752 33.5632 146.742 33.9089 146.742 34.3907C146.742 34.8516 146.784 35.323 146.868 35.8048C146.952 36.2866 147.088 36.7056 147.277 37.0618C147.487 37.4389 147.781 37.6274 148.159 37.6274C148.705 37.6274 149.22 37.4074 149.703 36.9675C150.207 36.5276 150.669 36.0562 151.089 35.5534C151.509 35.0297 151.887 34.5478 152.223 34.1079C152.559 33.668 152.832 33.448 153.042 33.448C153.294 33.448 153.515 33.5423 153.704 33.7308C153.914 33.9193 154.019 34.1393 154.019 34.3907C154.019 34.7887 153.798 35.2811 153.357 35.8677C152.937 36.4542 152.423 37.0094 151.814 37.5331C151.226 38.0778 150.596 38.5387 149.924 38.9158C149.272 39.2929 148.705 39.4814 148.222 39.4814C147.697 39.4814 147.246 39.3662 146.868 39.1358C146.49 38.9263 146.164 38.6435 145.891 38.2873C145.639 37.9312 145.439 37.5227 145.292 37.0618C145.145 36.6218 145.051 36.1819 145.009 35.742C144.757 36.119 144.431 36.559 144.032 37.0618C143.633 37.5855 143.203 38.0778 142.741 38.5387C142.279 39.0206 141.785 39.4186 141.26 39.7328C140.756 40.068 140.252 40.2356 139.748 40.2356C139.433 40.2356 139.17 40.1623 138.96 40.0157C138.729 39.869 138.551 39.67 138.425 39.4186C138.299 39.1881 138.204 38.9263 138.141 38.633C138.078 38.3606 138.047 38.0883 138.047 37.816C138.047 37.1246 138.131 36.3809 138.299 35.5848C138.467 34.7888 138.74 34.066 139.118 33.4166C139.496 32.7462 139.979 32.191 140.567 31.7511C141.155 31.3111 141.869 31.0912 142.709 31.0912ZM140 38.3502H140.063C140.378 38.2245 140.735 37.9521 141.134 37.5331C141.533 37.1351 141.932 36.6952 142.331 36.2133C142.73 35.7105 143.098 35.2182 143.434 34.7364C143.791 34.2336 144.053 33.846 144.221 33.5737C143.99 33.4061 143.738 33.2594 143.465 33.1337C143.192 32.9871 142.909 32.9138 142.615 32.9138C142.111 32.9138 141.691 33.1023 141.355 33.4794C141.018 33.8355 140.735 34.2755 140.504 34.7992C140.294 35.302 140.136 35.8258 140.031 36.3704C139.947 36.9361 139.905 37.4074 139.905 37.7845C139.905 37.9731 139.937 38.1616 140 38.3502Z" fill="white"/>
<path d="M152.396 31.1226C152.396 30.6826 152.427 29.9913 152.49 29.0486C152.553 28.0849 152.658 27.0165 152.805 25.8433C152.931 24.6701 153.099 23.4655 153.309 22.2295C153.54 20.9725 153.824 19.8308 154.16 18.8043C154.496 17.7778 154.895 16.9398 155.357 16.2903C155.819 15.62 156.344 15.2848 156.932 15.2848C157.247 15.2848 157.51 15.3581 157.72 15.5047C157.93 15.6514 158.098 15.8399 158.224 16.0704C158.35 16.2799 158.434 16.5313 158.476 16.8245C158.518 17.0969 158.539 17.3588 158.539 17.6102C158.539 18.511 158.445 19.4956 158.256 20.564C158.067 21.6115 157.804 22.659 157.468 23.7065C157.132 24.733 156.733 25.7281 156.271 26.6918C155.83 27.6554 155.347 28.5039 154.822 29.2371C154.675 29.4676 154.496 29.5933 154.286 29.6142C154.265 29.8447 154.255 30.0646 154.255 30.2741C154.255 30.4836 154.255 30.7036 154.255 30.934C154.255 31.1854 154.255 31.5416 154.255 32.0025C154.255 32.4634 154.276 32.9661 154.318 33.5108C154.36 34.0346 154.423 34.5793 154.507 35.1449C154.612 35.6896 154.759 36.1924 154.948 36.6533C155.158 37.1141 155.41 37.4912 155.704 37.7845C156.019 38.0778 156.397 38.2245 156.838 38.2245C157.237 38.2454 157.657 38.1511 158.098 37.9417C158.539 37.7322 158.959 37.4493 159.358 37.0932C159.778 36.758 160.167 36.36 160.524 35.8991C160.902 35.4382 161.217 34.9563 161.469 34.4536C161.679 34.0346 161.973 33.8879 162.351 34.0136C162.603 34.0765 162.782 34.2231 162.887 34.4536C163.013 34.684 163.034 34.9144 162.95 35.1449C162.719 35.8153 162.362 36.4542 161.878 37.0618C161.416 37.6693 160.881 38.193 160.272 38.633C159.684 39.0939 159.054 39.45 158.382 39.7014C157.73 39.9738 157.09 40.0994 156.46 40.0785C155.809 40.0576 155.252 39.89 154.79 39.5757C154.328 39.2615 153.95 38.853 153.656 38.3502C153.362 37.8683 153.131 37.3132 152.963 36.6847C152.795 36.0771 152.669 35.4487 152.585 34.7992C152.501 34.1288 152.448 33.4794 152.427 32.8509C152.406 32.2015 152.396 31.6254 152.396 31.1226ZM154.664 25.7176C154.937 25.152 155.189 24.5444 155.42 23.895C155.672 23.2456 155.882 22.5752 156.05 21.8839C156.239 21.1925 156.386 20.5117 156.491 19.8413C156.596 19.1499 156.649 18.49 156.649 17.8615V17.5159C156.46 17.7673 156.26 18.2701 156.05 19.0242C155.84 19.7575 155.641 20.5536 155.452 21.4125C155.263 22.2714 155.095 23.1094 154.948 23.9264C154.822 24.7435 154.727 25.3405 154.664 25.7176Z" fill="white"/>
<path d="M83.7105 43.4409C83.9205 43.3152 84.2565 43.1057 84.7186 42.8124C85.1806 42.5191 85.6847 42.1839 86.2308 41.8068C86.7978 41.4297 87.3859 41.0317 87.995 40.6127C88.604 40.1937 89.1501 39.7852 89.6332 39.3872C90.1372 38.9891 90.5468 38.6225 90.8618 38.2873C91.1768 37.9521 91.3344 37.6798 91.3344 37.4703C91.3344 37.2817 91.1979 37.1665 90.9248 37.1246C90.6728 37.0827 90.4838 37.0618 90.3578 37.0618C89.6227 37.0618 88.8876 37.0827 88.1525 37.1246C87.4174 37.1665 86.6823 37.1875 85.9472 37.1875C85.6742 37.1875 85.3907 37.1665 85.0966 37.1246C84.8236 37.0827 84.5716 36.9989 84.3405 36.8732C84.1095 36.7475 83.9205 36.5799 83.7735 36.3704C83.6264 36.14 83.5529 35.8572 83.5529 35.522C83.5529 35.2077 83.6894 34.8411 83.9625 34.4221C84.2145 33.9822 84.5506 33.5318 84.9706 33.0709C85.4117 32.5891 85.8947 32.1282 86.4198 31.6882C86.9658 31.2273 87.5014 30.8188 88.0265 30.4627C88.5515 30.0856 89.0451 29.7923 89.5071 29.5828C89.9902 29.3524 90.3893 29.2371 90.7043 29.2371C91.1663 29.2371 91.5759 29.3943 91.9329 29.7085C92.311 30.0018 92.5 30.3894 92.5 30.8712C92.5 31.1645 92.4265 31.4159 92.2795 31.6254C92.1325 31.8349 91.9119 31.9396 91.6179 31.9396C91.3659 31.9396 91.1348 31.8663 90.9248 31.7196C90.7358 31.5521 90.6308 31.3426 90.6098 31.0912C90.2737 31.175 89.8537 31.3949 89.3496 31.7511C88.8666 32.0863 88.373 32.4738 87.869 32.9138C87.3859 33.3537 86.9238 33.7936 86.4828 34.2336C86.0627 34.6735 85.7477 35.0401 85.5377 35.3334C86.2938 35.3334 87.0499 35.3125 87.8059 35.2706C88.562 35.2287 89.3076 35.2077 90.0427 35.2077C90.3578 35.2077 90.6728 35.2287 90.9878 35.2706C91.3239 35.3125 91.6389 35.3963 91.9329 35.522C92.5 35.7734 92.8676 36.0771 93.0356 36.4333C93.2246 36.7894 93.2666 37.177 93.1616 37.596C93.7707 37.2189 94.3587 36.8209 94.9258 36.4019C95.4929 36.0038 95.9969 35.6477 96.438 35.3334C96.9 34.9982 97.2781 34.7259 97.5721 34.5164C97.8872 34.3069 98.0867 34.2022 98.1707 34.2022C98.4227 34.2231 98.6327 34.3383 98.8008 34.5478C98.9898 34.7573 99.0738 34.9878 99.0528 35.2392C99.0318 35.4068 98.8113 35.6791 98.3912 36.0562C97.9712 36.4333 97.4461 36.8523 96.816 37.3132C96.186 37.7741 95.4929 38.2349 94.7368 38.6958C93.9807 39.1777 93.2561 39.6071 92.563 39.9842C92.122 40.2147 91.7229 40.4346 91.3659 40.6441C91.0088 40.8746 90.6623 41.105 90.3262 41.3355C89.9902 41.5869 89.6542 41.8383 89.3181 42.0897C88.9821 42.341 88.625 42.6029 88.247 42.8753C88.1 42.98 87.8374 43.1581 87.4594 43.4095C87.0814 43.6818 86.6718 43.9437 86.2308 44.1951C85.8107 44.4674 85.4012 44.6979 85.0021 44.8864C84.6031 45.0959 84.309 45.2007 84.12 45.2007C83.868 45.2007 83.6684 45.0959 83.5214 44.8864C83.3744 44.6769 83.3009 44.4569 83.3009 44.2265C83.3009 43.9123 83.4374 43.6504 83.7105 43.4409Z" stroke="#A02621" stroke-width="8" stroke-linejoin="round" mask="url(#path-3-outside-1_32_13)"/>
<path d="M97.8525 37.156C97.8945 36.0038 97.926 34.8411 97.947 33.668C97.947 32.4738 98.01 31.3111 98.136 30.1799C98.199 29.5933 98.5245 29.3 99.1126 29.3C99.7007 29.3 99.9947 29.5933 99.9947 30.1799C99.9947 30.5151 99.9842 30.8398 99.9632 31.154C99.9422 31.4683 99.9212 31.793 99.9002 32.1282C100.173 31.8349 100.52 31.4997 100.94 31.1226C101.36 30.7245 101.811 30.3475 102.294 29.9913C102.799 29.6352 103.292 29.3419 103.775 29.1114C104.279 28.86 104.741 28.7343 105.161 28.7343C105.497 28.7343 105.802 28.8077 106.075 28.9543C106.369 29.101 106.611 29.2895 106.8 29.5199C107.01 29.7504 107.167 30.0227 107.272 30.337C107.377 30.6512 107.43 30.9655 107.43 31.2797C107.43 32.1805 107.178 33.0499 106.674 33.8879C106.169 34.705 105.529 35.4591 104.752 36.1505C103.975 36.8209 103.135 37.3865 102.231 37.8474C101.328 38.3083 100.478 38.6225 99.6797 38.7901L99.6482 41.6183C99.6482 43.4618 99.6902 45.2845 99.7742 47.0861C99.8792 48.9087 99.9317 50.7418 99.9317 52.5854C99.9317 52.8577 99.8582 53.0777 99.7112 53.2453C99.5642 53.4129 99.3436 53.4967 99.0496 53.4967C98.7766 53.4967 98.556 53.4129 98.388 53.2453C98.22 53.0777 98.115 52.8577 98.073 52.5854C97.905 50.8046 97.8209 49.003 97.8209 47.1804C97.7999 45.3578 97.7894 43.5561 97.7894 41.7754L97.8209 39.0101C97.4639 39.0101 97.1384 38.9577 96.8443 38.853C96.5293 38.7482 96.3718 38.4759 96.3718 38.0359C96.3718 37.575 96.5293 37.3027 96.8443 37.2189C97.1594 37.156 97.4954 37.1351 97.8525 37.156ZM99.7427 36.9047C100.184 36.779 100.677 36.5799 101.223 36.3076C101.79 36.0143 102.336 35.6791 102.862 35.302C103.387 34.904 103.87 34.4745 104.311 34.0136C104.752 33.5318 105.088 33.0395 105.319 32.5367C105.55 32.0339 105.613 31.6149 105.508 31.2797C105.403 30.9445 105.172 30.7769 104.815 30.7769C104.437 30.7769 103.996 30.9655 103.492 31.3426C103.009 31.7196 102.526 32.1701 102.042 32.6938C101.559 33.2175 101.108 33.7413 100.688 34.265C100.289 34.7678 99.9947 35.1658 99.8057 35.4591L99.7742 35.4906C99.7532 35.721 99.7427 35.9619 99.7427 36.2133C99.7427 36.4438 99.7427 36.6742 99.7427 36.9047Z" stroke="#A02621" stroke-width="8" stroke-linejoin="round" mask="url(#path-3-outside-1_32_13)"/>
<path d="M113.886 30.117C114.201 30.117 114.516 30.1694 114.831 30.2741C115.146 30.3579 115.43 30.4941 115.682 30.6826C115.934 30.8502 116.133 31.0702 116.28 31.3426C116.427 31.594 116.501 31.8977 116.501 32.2539C116.501 32.9033 116.28 33.4794 115.839 33.9822C115.398 34.485 114.852 34.9144 114.201 35.2706C113.571 35.6058 112.899 35.8781 112.185 36.0876C111.492 36.2762 110.883 36.3914 110.357 36.4333C110.694 37.0199 111.124 37.4493 111.649 37.7217C112.195 38.015 112.804 38.1616 113.476 38.1616C114.358 38.1616 115.188 37.9521 115.965 37.5331C116.763 37.1351 117.477 36.6952 118.107 36.2133C118.758 35.7315 119.315 35.2915 119.777 34.8935C120.239 34.4745 120.586 34.265 120.817 34.265C121.048 34.265 121.268 34.3593 121.478 34.5478C121.688 34.7364 121.793 34.9563 121.793 35.2077C121.793 35.3334 121.762 35.4487 121.699 35.5534C121.657 35.6372 121.594 35.7315 121.51 35.8362C121.027 36.339 120.47 36.8418 119.84 37.3446C119.21 37.8474 118.538 38.2873 117.824 38.6644C117.11 39.0625 116.375 39.3872 115.619 39.6386C114.884 39.89 114.148 40.0157 113.413 40.0157C112.783 40.0157 112.164 39.9004 111.555 39.67C110.946 39.4605 110.389 39.1567 109.885 38.7587C109.402 38.3606 109.013 37.8788 108.719 37.3132C108.425 36.7475 108.278 36.1295 108.278 35.4591C108.278 34.6631 108.446 33.9403 108.782 33.2909C109.118 32.6414 109.549 32.0863 110.074 31.6254C110.62 31.1435 111.229 30.7769 111.901 30.5255C112.573 30.2532 113.235 30.117 113.886 30.117ZM114.327 32.9138C114.579 32.6624 114.663 32.4424 114.579 32.2539C114.495 32.0444 114.264 31.9396 113.886 31.9396C113.55 31.9396 113.193 32.0234 112.815 32.191C112.437 32.3377 112.08 32.5367 111.744 32.7881C111.429 33.0395 111.145 33.3223 110.893 33.6365C110.641 33.9508 110.452 34.265 110.326 34.5793C110.515 34.6002 110.788 34.5688 111.145 34.485C111.502 34.3802 111.88 34.2545 112.279 34.1079C112.678 33.9403 113.067 33.7517 113.445 33.5423C113.823 33.3328 114.117 33.1233 114.327 32.9138Z" stroke="#A02621" stroke-width="8" stroke-linejoin="round" mask="url(#path-3-outside-1_32_13)"/>
<path d="M124.311 30.2113C125.047 30.2113 125.687 30.4522 126.233 30.934C126.779 31.4159 127.052 32.0339 127.052 32.7881C127.052 33.1023 126.979 33.4061 126.832 33.6994C126.706 33.9717 126.454 34.1079 126.076 34.1079C125.845 34.1079 125.624 34.0346 125.414 33.8879C125.225 33.7203 125.131 33.5004 125.131 33.228C125.131 33.0814 125.131 32.9347 125.131 32.7881C125.131 32.6414 125.11 32.5157 125.068 32.411C125.026 32.3062 124.942 32.2224 124.816 32.1596C124.71 32.0758 124.542 32.0339 124.311 32.0339C123.912 32.0339 123.555 32.2015 123.24 32.5367C122.946 32.8509 122.694 33.228 122.484 33.668C122.274 34.1079 122.117 34.5688 122.012 35.0506C121.907 35.5325 121.854 35.9305 121.854 36.2447C121.854 36.6847 121.959 37.0932 122.169 37.4703C122.379 37.8683 122.736 38.0673 123.24 38.0673C124.059 38.0673 124.889 37.8683 125.729 37.4703C126.569 37.0722 127.346 36.6323 128.06 36.1505C128.774 35.6477 129.384 35.1973 129.888 34.7992C130.413 34.4012 130.759 34.2022 130.927 34.2022C131.179 34.2022 131.4 34.3069 131.589 34.5164C131.778 34.705 131.872 34.9249 131.872 35.1763C131.872 35.4277 131.788 35.6372 131.62 35.8048C131.137 36.3285 130.57 36.8313 129.919 37.3132C129.268 37.816 128.575 38.2559 127.84 38.633C127.105 39.031 126.338 39.3453 125.54 39.5757C124.763 39.8062 123.996 39.9214 123.24 39.9214C122.715 39.9214 122.243 39.8166 121.823 39.6071C121.424 39.3976 121.088 39.1148 120.815 38.7587C120.562 38.4235 120.373 38.0254 120.247 37.5646C120.1 37.1246 120.027 36.6637 120.027 36.1819C120.027 35.5744 120.121 34.9249 120.31 34.2336C120.478 33.5423 120.741 32.9033 121.098 32.3167C121.455 31.7092 121.896 31.2064 122.421 30.8083C122.967 30.4103 123.597 30.2113 124.311 30.2113Z" stroke="#A02621" stroke-width="8" stroke-linejoin="round" mask="url(#path-3-outside-1_32_13)"/>
<path d="M131.626 31.4368C131.9 31.4368 132.12 31.5206 132.288 31.6882C132.456 31.8558 132.54 32.0758 132.54 32.3481C132.54 32.6414 132.519 32.9452 132.477 33.2594C132.435 33.5527 132.414 33.846 132.414 34.1393C132.414 35.522 132.551 36.5066 132.824 37.0932C133.097 37.7007 133.475 38.0045 133.958 38.0045C134.504 38.0045 135.155 37.7112 135.911 37.1246C136.688 36.538 137.549 35.7839 138.494 34.8621C138.641 34.7154 138.757 34.5897 138.841 34.485C138.925 34.3593 139.019 34.2964 139.124 34.2964C139.376 34.2964 139.586 34.3698 139.754 34.5164C139.922 34.6421 140.006 34.8307 140.006 35.082C140.006 35.2077 139.975 35.3544 139.912 35.522C139.849 35.6896 139.754 35.8467 139.628 35.9933C138.494 37.2503 137.423 38.193 136.415 38.8215C135.407 39.45 134.504 39.7643 133.706 39.7643C132.74 39.7643 131.973 39.2929 131.406 38.3502C130.86 37.4284 130.587 36.0352 130.587 34.1707C130.587 33.9612 130.587 33.6994 130.587 33.3851C130.587 33.0709 130.618 32.7776 130.681 32.5053C130.723 32.212 130.818 31.9606 130.965 31.7511C131.112 31.5416 131.332 31.4368 131.626 31.4368ZM132.131 26.4089C132.362 26.4089 132.561 26.4927 132.729 26.6603C132.897 26.8279 132.981 27.027 132.981 27.2574C132.981 27.4459 132.981 27.6869 132.981 27.9802C132.981 28.2735 132.95 28.5563 132.887 28.8286C132.824 29.101 132.719 29.3314 132.572 29.5199C132.425 29.7085 132.215 29.8028 131.942 29.8028C131.71 29.8028 131.5 29.719 131.311 29.5514C131.122 29.3628 131.028 29.1533 131.028 28.9229C131.028 28.6924 131.028 28.441 131.028 28.1687C131.028 27.8754 131.059 27.6031 131.122 27.3517C131.185 27.0793 131.29 26.8594 131.437 26.6918C131.605 26.5032 131.837 26.4089 132.131 26.4089Z" stroke="#A02621" stroke-width="8" stroke-linejoin="round" mask="url(#path-3-outside-1_32_13)"/>
<path d="M142.709 31.0912C143.15 31.0912 143.57 31.175 143.969 31.3426C144.389 31.5102 144.778 31.7092 145.135 31.9396C145.219 31.772 145.345 31.6463 145.513 31.5625C145.681 31.4787 145.849 31.4368 146.017 31.4368C146.269 31.4368 146.479 31.5311 146.647 31.7196C146.815 31.9082 146.899 32.1177 146.899 32.3481C146.899 32.5157 146.878 32.6833 146.836 32.8509C146.815 33.0185 146.794 33.1861 146.773 33.3537C146.752 33.5632 146.742 33.9089 146.742 34.3907C146.742 34.8516 146.784 35.323 146.868 35.8048C146.952 36.2866 147.088 36.7056 147.277 37.0618C147.487 37.4389 147.781 37.6274 148.159 37.6274C148.705 37.6274 149.22 37.4074 149.703 36.9675C150.207 36.5276 150.669 36.0562 151.089 35.5534C151.509 35.0297 151.887 34.5478 152.223 34.1079C152.559 33.668 152.832 33.448 153.042 33.448C153.294 33.448 153.515 33.5423 153.704 33.7308C153.914 33.9193 154.019 34.1393 154.019 34.3907C154.019 34.7887 153.798 35.2811 153.357 35.8677C152.937 36.4542 152.423 37.0094 151.814 37.5331C151.226 38.0778 150.596 38.5387 149.924 38.9158C149.272 39.2929 148.705 39.4814 148.222 39.4814C147.697 39.4814 147.246 39.3662 146.868 39.1358C146.49 38.9263 146.164 38.6435 145.891 38.2873C145.639 37.9312 145.439 37.5227 145.292 37.0618C145.145 36.6218 145.051 36.1819 145.009 35.742C144.757 36.119 144.431 36.559 144.032 37.0618C143.633 37.5855 143.203 38.0778 142.741 38.5387C142.279 39.0206 141.785 39.4186 141.26 39.7328C140.756 40.068 140.252 40.2356 139.748 40.2356C139.433 40.2356 139.17 40.1623 138.96 40.0157C138.729 39.869 138.551 39.67 138.425 39.4186C138.299 39.1881 138.204 38.9263 138.141 38.633C138.078 38.3606 138.047 38.0883 138.047 37.816C138.047 37.1246 138.131 36.3809 138.299 35.5848C138.467 34.7888 138.74 34.066 139.118 33.4166C139.496 32.7462 139.979 32.191 140.567 31.7511C141.155 31.3111 141.869 31.0912 142.709 31.0912ZM140 38.3502H140.063C140.378 38.2245 140.735 37.9521 141.134 37.5331C141.533 37.1351 141.932 36.6952 142.331 36.2133C142.73 35.7105 143.098 35.2182 143.434 34.7364C143.791 34.2336 144.053 33.846 144.221 33.5737C143.99 33.4061 143.738 33.2594 143.465 33.1337C143.192 32.9871 142.909 32.9138 142.615 32.9138C142.111 32.9138 141.691 33.1023 141.355 33.4794C141.018 33.8355 140.735 34.2755 140.504 34.7992C140.294 35.302 140.136 35.8258 140.031 36.3704C139.947 36.9361 139.905 37.4074 139.905 37.7845C139.905 37.9731 139.937 38.1616 140 38.3502Z" stroke="#A02621" stroke-width="8" stroke-linejoin="round" mask="url(#path-3-outside-1_32_13)"/>
<path d="M152.396 31.1226C152.396 30.6826 152.427 29.9913 152.49 29.0486C152.553 28.0849 152.658 27.0165 152.805 25.8433C152.931 24.6701 153.099 23.4655 153.309 22.2295C153.54 20.9725 153.824 19.8308 154.16 18.8043C154.496 17.7778 154.895 16.9398 155.357 16.2903C155.819 15.62 156.344 15.2848 156.932 15.2848C157.247 15.2848 157.51 15.3581 157.72 15.5047C157.93 15.6514 158.098 15.8399 158.224 16.0704C158.35 16.2799 158.434 16.5313 158.476 16.8245C158.518 17.0969 158.539 17.3588 158.539 17.6102C158.539 18.511 158.445 19.4956 158.256 20.564C158.067 21.6115 157.804 22.659 157.468 23.7065C157.132 24.733 156.733 25.7281 156.271 26.6918C155.83 27.6554 155.347 28.5039 154.822 29.2371C154.675 29.4676 154.496 29.5933 154.286 29.6142C154.265 29.8447 154.255 30.0646 154.255 30.2741C154.255 30.4836 154.255 30.7036 154.255 30.934C154.255 31.1854 154.255 31.5416 154.255 32.0025C154.255 32.4634 154.276 32.9661 154.318 33.5108C154.36 34.0346 154.423 34.5793 154.507 35.1449C154.612 35.6896 154.759 36.1924 154.948 36.6533C155.158 37.1141 155.41 37.4912 155.704 37.7845C156.019 38.0778 156.397 38.2245 156.838 38.2245C157.237 38.2454 157.657 38.1511 158.098 37.9417C158.539 37.7322 158.959 37.4493 159.358 37.0932C159.778 36.758 160.167 36.36 160.524 35.8991C160.902 35.4382 161.217 34.9563 161.469 34.4536C161.679 34.0346 161.973 33.8879 162.351 34.0136C162.603 34.0765 162.782 34.2231 162.887 34.4536C163.013 34.684 163.034 34.9144 162.95 35.1449C162.719 35.8153 162.362 36.4542 161.878 37.0618C161.416 37.6693 160.881 38.193 160.272 38.633C159.684 39.0939 159.054 39.45 158.382 39.7014C157.73 39.9738 157.09 40.0994 156.46 40.0785C155.809 40.0576 155.252 39.89 154.79 39.5757C154.328 39.2615 153.95 38.853 153.656 38.3502C153.362 37.8683 153.131 37.3132 152.963 36.6847C152.795 36.0771 152.669 35.4487 152.585 34.7992C152.501 34.1288 152.448 33.4794 152.427 32.8509C152.406 32.2015 152.396 31.6254 152.396 31.1226ZM154.664 25.7176C154.937 25.152 155.189 24.5444 155.42 23.895C155.672 23.2456 155.882 22.5752 156.05 21.8839C156.239 21.1925 156.386 20.5117 156.491 19.8413C156.596 19.1499 156.649 18.49 156.649 17.8615V17.5159C156.46 17.7673 156.26 18.2701 156.05 19.0242C155.84 19.7575 155.641 20.5536 155.452 21.4125C155.263 22.2714 155.095 23.1094 154.948 23.9264C154.822 24.7435 154.727 25.3405 154.664 25.7176Z" stroke="#A02621" stroke-width="8" stroke-linejoin="round" mask="url(#path-3-outside-1_32_13)"/>
</svg>
