<svg width="511" height="720" viewBox="0 0 511 720" fill="none" xmlns="http://www.w3.org/2000/svg">
<rect y="18" width="511" height="683" fill="white"/>
<path d="M0 19V0L5.7817 5.67226L11.4796 0.0822065L17.167 5.67226L22.8649 0.0822065L28.5628 5.67226L34.2503 0.0822065L39.9482 5.67226L45.6356 0.0822065L51.3335 5.67226L57.0314 0.0822065L62.7189 5.67226L68.4168 0.0822065L74.1147 5.67226L79.8021 0.0822065L85.5 5.67226L91.1979 0.0822065L96.8853 5.67226L102.583 0.0822065L108.271 5.67226L113.969 0.0822065L119.666 5.67226L125.354 0.0822065L131.052 5.67226L136.75 0.0822065L142.437 5.67226L148.135 0.0822065L153.833 5.67226L159.52 0.0822065L165.218 5.67226L171 0V19H0Z" fill="white"/>
<path d="M171 19V0L176.714 5.67226L182.345 0.0822065L187.966 5.67226L193.598 0.0822065L199.229 5.67226L204.85 0.0822065L210.481 5.67226L216.102 0.0822065L221.733 5.67226L227.364 0.0822065L232.985 5.67226L238.617 0.0822065L244.248 5.67226L249.869 0.0822065L255.5 5.67226L261.131 0.0822065L266.752 5.67226L272.383 0.0822065L278.004 5.67226L283.636 0.0822065L289.267 5.67226L294.888 0.0822065L300.519 5.67226L306.15 0.0822065L311.771 5.67226L317.402 0.0822065L323.034 5.67226L328.655 0.0822065L334.286 5.67226L340 0V19H171Z" fill="white"/>
<path d="M340 19V0L345.782 5.67226L351.48 0.0822065L357.167 5.67226L362.865 0.0822065L368.563 5.67226L374.25 0.0822065L379.948 5.67226L385.636 0.0822065L391.334 5.67226L397.031 0.0822065L402.719 5.67226L408.417 0.0822065L414.115 5.67226L419.802 0.0822065L425.5 5.67226L431.198 0.0822065L436.885 5.67226L442.583 0.0822065L448.271 5.67226L453.969 0.0822065L459.666 5.67226L465.354 0.0822065L471.052 5.67226L476.75 0.0822065L482.437 5.67226L488.135 0.0822065L493.833 5.67226L499.52 0.0822065L505.218 5.67226L511 0V19H340Z" fill="white"/>
<path d="M0 701V720L5.7817 714.328L11.4796 719.918L17.167 714.328L22.8649 719.918L28.5628 714.328L34.2503 719.918L39.9482 714.328L45.6356 719.918L51.3335 714.328L57.0314 719.918L62.7189 714.328L68.4168 719.918L74.1147 714.328L79.8021 719.918L85.5 714.328L91.1979 719.918L96.8853 714.328L102.583 719.918L108.271 714.328L113.969 719.918L119.666 714.328L125.354 719.918L131.052 714.328L136.75 719.918L142.437 714.328L148.135 719.918L153.833 714.328L159.52 719.918L165.218 714.328L171 720V701H0Z" fill="white"/>
<path d="M171 701V720L176.714 714.328L182.345 719.918L187.966 714.328L193.598 719.918L199.229 714.328L204.85 719.918L210.481 714.328L216.102 719.918L221.733 714.328L227.364 719.918L232.985 714.328L238.617 719.918L244.248 714.328L249.869 719.918L255.5 714.328L261.131 719.918L266.752 714.328L272.383 719.918L278.004 714.328L283.636 719.918L289.267 714.328L294.888 719.918L300.519 714.328L306.15 719.918L311.771 714.328L317.402 719.918L323.034 714.328L328.655 719.918L334.286 714.328L340 720V701H171Z" fill="white"/>
<path d="M340 701V720L345.782 714.328L351.48 719.918L357.167 714.328L362.865 719.918L368.563 714.328L374.25 719.918L379.948 714.328L385.636 719.918L391.334 714.328L397.031 719.918L402.719 714.328L408.417 719.918L414.115 714.328L419.802 719.918L425.5 714.328L431.198 719.918L436.885 714.328L442.583 719.918L448.271 714.328L453.969 719.918L459.666 714.328L465.354 719.918L471.052 714.328L476.75 719.918L482.437 714.328L488.135 719.918L493.833 714.328L499.52 719.918L505.218 714.328L511 720V701H340Z" fill="white"/>
</svg>
