<svg width="16" height="18" viewBox="0 0 16 18" fill="none" xmlns="http://www.w3.org/2000/svg">
<path d="M8.60176 0.112174C9.11908 0.329476 9.77866 0.831989 10.3606 1.1172C11.3047 1.56539 12.3523 1.90492 13.3611 2.13581C14.9001 2.48892 15.8313 2.08148 15.9606 4.21376C16.0253 5.2867 15.9994 6.672 15.9606 7.74494C15.7666 13.0145 13.5421 15.2826 9.23547 17.5236C8.43363 17.9446 8.17497 18.2026 7.2826 17.7952C6.31263 17.347 4.65721 16.342 3.7907 15.6901C0.117737 12.9602 -0.205587 8.53266 0.0789382 4.11869C0.117737 3.50753 0.169469 3.08651 0.60919 2.67906C1.08771 2.21729 2.03182 2.27162 2.67846 2.12222C4.28215 1.75553 5.52371 1.15794 6.93341 0.397384C7.46366 0.112174 7.99391 -0.159455 8.60176 0.112174ZM11.2142 5.30028C11.0461 5.31386 10.8262 5.44968 10.6969 5.55833L7.37313 9.21173C7.26966 9.21173 6.04103 7.90791 5.80824 7.73135C4.65721 6.90289 3.5579 8.36968 4.43735 9.33396C4.8124 9.74141 6.58422 11.4255 6.97221 11.6428C7.83871 12.1453 8.58883 11.0045 9.14494 10.4069C10.2054 9.25247 11.2013 8.01656 12.2489 6.86214C12.5334 6.10158 12.029 5.19163 11.2142 5.30028Z" fill="#0DB561"/>
</svg>
