<svg width="20" height="20" viewBox="0 0 20 20" fill="none" xmlns="http://www.w3.org/2000/svg">
<rect width="20" height="20" rx="10" fill="#FFD600"/>
<path d="M11.2202 7.0346L7.43775 9.26789V13.7385L11.2189 15.9705L15 13.7385V9.26789L11.2202 7.0346ZM13.9278 9.45128L11.2202 11.0515L8.51131 9.45128L11.2202 7.85238L13.9278 9.45128ZM8.12583 10.0408L10.8755 11.6669V14.9489L8.12583 13.3256V10.0408ZM11.5636 14.9489V11.6669L14.3146 10.0408V13.3242L11.5636 14.9489Z" fill="#3C3C3C"/>
<path d="M11.2202 3L7.43775 5.23193V9.70259L11.2189 11.9345L15 9.70259V5.23193L11.2202 3ZM13.9159 5.41668L11.207 7.01693L8.49946 5.41668L11.207 3.81779L13.9159 5.41668ZM8.12583 6.00625L10.8755 7.63231V10.9143L8.12583 9.28962V6.00625ZM11.5346 10.8641L11.5623 7.63095L14.3132 6.00489L14.2856 9.23936L11.5346 10.8641Z" fill="#3C3C3C"/>
<path d="M7.81402 9.04103L4 11.2974V15.7681L7.78112 18L11.5622 15.7681L11.5951 11.273L7.81402 9.04103ZM10.49 11.4822L7.78112 13.0824L5.07356 11.4822L7.78244 9.88327L10.49 11.4822ZM4.68808 12.0717L7.43906 13.6978V16.9798L4.68808 15.3565V12.0717ZM8.12582 16.9798V13.6978L10.8768 12.0717V15.3551L8.12582 16.9798Z" fill="#3C3C3C"/>
</svg>
